<svg width="146" height="35" viewBox="0 0 146 35" fill="none" xmlns="http://www.w3.org/2000/svg">
<path d="M74.3254 19.56V4.90165H77.6751V7.3447H77.8278C78.095 6.49854 78.5531 5.84642 79.202 5.38835C79.8573 4.92391 80.6049 4.6917 81.4447 4.6917C81.6355 4.6917 81.8487 4.70124 82.0841 4.72033C82.3258 4.73305 82.5262 4.75532 82.6853 4.78713V7.96501C82.5389 7.91411 82.3067 7.86958 81.9886 7.83141C81.6769 7.78687 81.3747 7.76461 81.082 7.76461C80.4522 7.76461 79.8859 7.90139 79.3833 8.17496C78.8871 8.44217 78.4958 8.81436 78.2095 9.29152C77.9232 9.76868 77.7801 10.319 77.7801 10.9425V19.56H74.3254Z" fill="#090322"/>
<path d="M63.3755 19.8177C62.2239 19.8177 61.1933 19.5218 60.2835 18.9301C59.3737 18.3385 58.6548 17.4796 58.1267 16.3535C57.5987 15.2274 57.3346 13.8595 57.3346 12.2499C57.3346 10.6212 57.6018 9.24698 58.1363 8.12725C58.677 7.00115 59.4055 6.15181 60.3216 5.57922C61.2378 5.00026 62.2589 4.71079 63.385 4.71079C64.2439 4.71079 64.9501 4.85711 65.5036 5.14977C66.0571 5.43607 66.4961 5.7828 66.8206 6.18998C67.145 6.59079 67.3963 6.96934 67.5745 7.32562H67.7176V0.0155334H71.1818V19.56H67.7844V17.2505H67.5745C67.3963 17.6068 67.1387 17.9854 66.8015 18.3862C66.4643 18.7806 66.0189 19.1178 65.4654 19.3978C64.9119 19.6777 64.2153 19.8177 63.3755 19.8177ZM64.3393 16.9833C65.071 16.9833 65.6945 16.7861 66.2098 16.3917C66.7251 15.9908 67.1164 15.4342 67.3836 14.7216C67.6508 14.009 67.7844 13.1788 67.7844 12.2308C67.7844 11.2829 67.6508 10.459 67.3836 9.75913C67.1228 9.0593 66.7347 8.51534 66.2193 8.12725C65.7104 7.73916 65.0837 7.54511 64.3393 7.54511C63.5695 7.54511 62.9269 7.74552 62.4116 8.14633C61.8963 8.54715 61.5082 9.10065 61.2473 9.80685C60.9865 10.513 60.8561 11.321 60.8561 12.2308C60.8561 13.147 60.9865 13.9645 61.2473 14.6834C61.5145 15.396 61.9058 15.959 62.4211 16.3726C62.9428 16.7797 63.5822 16.9833 64.3393 16.9833Z" fill="#090322"/>
<path d="M48.422 19.56V4.90165H51.7717V7.3447H51.9244C52.1916 6.49854 52.6496 5.84642 53.2986 5.38835C53.9539 4.92391 54.7014 4.6917 55.5412 4.6917C55.7321 4.6917 55.9452 4.70124 56.1806 4.72033C56.4224 4.73305 56.6228 4.75532 56.7818 4.78713V7.96501C56.6355 7.91411 56.4033 7.86958 56.0852 7.83141C55.7734 7.78687 55.4712 7.76461 55.1786 7.76461C54.5487 7.76461 53.9825 7.90139 53.4799 8.17496C52.9836 8.44217 52.5924 8.81436 52.3061 9.29152C52.0198 9.76868 51.8766 10.319 51.8766 10.9425V19.56H48.422Z" fill="#090322"/>
<path d="M37.7462 19.8558C36.8173 19.8558 35.9807 19.6904 35.2363 19.3596C34.4983 19.0224 33.913 18.5261 33.4804 17.8708C33.0541 17.2156 32.841 16.4076 32.841 15.4469C32.841 14.6198 32.9937 13.9359 33.299 13.3951C33.6044 12.8543 34.0211 12.4217 34.5492 12.0972C35.0773 11.7727 35.6721 11.5278 36.3338 11.3624C37.0018 11.1906 37.6921 11.0666 38.4047 10.9902C39.2635 10.9011 39.9602 10.8216 40.4946 10.7516C41.029 10.6753 41.4171 10.5608 41.6589 10.4081C41.907 10.249 42.0311 10.0041 42.0311 9.67325V9.61599C42.0311 8.89707 41.8179 8.34038 41.3917 7.94593C40.9654 7.55148 40.3515 7.35425 39.5498 7.35425C38.7037 7.35425 38.0325 7.53875 37.5362 7.90775C37.0463 8.27676 36.7155 8.71256 36.5437 9.21517L33.3181 8.7571C33.5726 7.8664 33.9925 7.12203 34.5778 6.52399C35.1631 5.91959 35.8789 5.46788 36.7251 5.16886C37.5712 4.86348 38.5064 4.71078 39.5308 4.71078C40.2369 4.71078 40.94 4.79349 41.6398 4.95891C42.3396 5.12432 42.979 5.39789 43.558 5.77962C44.1369 6.15499 44.6014 6.66714 44.9513 7.31608C45.3076 7.96501 45.4857 8.77619 45.4857 9.74959V19.56H42.1647V17.5464H42.0502C41.8402 17.9536 41.5444 18.3353 41.1626 18.6916C40.7873 19.0415 40.3133 19.3246 39.7407 19.5409C39.1745 19.7509 38.5096 19.8558 37.7462 19.8558ZM38.6432 17.3173C39.3367 17.3173 39.9379 17.1806 40.4469 16.907C40.9559 16.6271 41.3471 16.2581 41.6207 15.8C41.9006 15.3419 42.0406 14.8425 42.0406 14.3017V12.5744C41.9325 12.6634 41.748 12.7462 41.4871 12.8225C41.2326 12.8988 40.9463 12.9656 40.6282 13.0229C40.3101 13.0802 39.9952 13.1311 39.6834 13.1756C39.3717 13.2201 39.1013 13.2583 38.8723 13.2901C38.3569 13.3601 37.8957 13.4746 37.4885 13.6337C37.0813 13.7927 36.76 14.0154 36.5246 14.3017C36.2892 14.5816 36.1715 14.9443 36.1715 15.3896C36.1715 16.0258 36.4038 16.5062 36.8682 16.8306C37.3326 17.1551 37.9243 17.3173 38.6432 17.3173Z" fill="#090322"/>
<path d="M24.1095 19.8463C22.678 19.8463 21.4374 19.5314 20.3876 18.9015C19.3379 18.2717 18.5235 17.3905 17.9446 16.258C17.372 15.1256 17.0857 13.8023 17.0857 12.2881C17.0857 10.7739 17.372 9.44739 17.9446 8.30857C18.5235 7.16975 19.3379 6.28541 20.3876 5.65556C21.4374 5.02571 22.678 4.71078 24.1095 4.71078C25.541 4.71078 26.7816 5.02571 27.8313 5.65556C28.8811 6.28541 29.6923 7.16975 30.2648 8.30857C30.8438 9.44739 31.1333 10.7739 31.1333 12.2881C31.1333 13.8023 30.8438 15.1256 30.2648 16.258C29.6923 17.3905 28.8811 18.2717 27.8313 18.9015C26.7816 19.5314 25.541 19.8463 24.1095 19.8463ZM24.1286 17.0788C24.9048 17.0788 25.5537 16.8656 26.0754 16.4394C26.5971 16.0067 26.9852 15.4278 27.2397 14.7025C27.5005 13.9772 27.6309 13.1692 27.6309 12.2785C27.6309 11.3815 27.5005 10.5703 27.2397 9.84502C26.9852 9.11338 26.5971 8.53124 26.0754 8.09862C25.5537 7.66599 24.9048 7.44968 24.1286 7.44968C23.3333 7.44968 22.6716 7.66599 22.1436 8.09862C21.6219 8.53124 21.2306 9.11338 20.9698 9.84502C20.7153 10.5703 20.588 11.3815 20.588 12.2785C20.588 13.1692 20.7153 13.9772 20.9698 14.7025C21.2306 15.4278 21.6219 16.0067 22.1436 16.4394C22.6716 16.8656 23.3333 17.0788 24.1286 17.0788Z" fill="#090322"/>
<path d="M0.743591 19.56V0.0155334H8.22546C9.63785 0.0155334 10.8117 0.238208 11.7469 0.683557C12.6885 1.12254 13.3915 1.72377 13.8559 2.48722C14.3267 3.25068 14.5621 4.11593 14.5621 5.08297C14.5621 5.87824 14.4094 6.55898 14.1041 7.12521C13.7987 7.68508 13.3883 8.13997 12.873 8.48989C12.3577 8.83981 11.7819 9.09111 11.1457 9.2438V9.43467C11.8391 9.47284 12.504 9.68597 13.1402 10.0741C13.7828 10.4558 14.3077 10.9966 14.7148 11.6964C15.122 12.3962 15.3256 13.2424 15.3256 14.2349C15.3256 15.2465 15.0807 16.1563 14.5908 16.9642C14.1009 17.7659 13.3629 18.3989 12.3767 18.8633C11.3906 19.3278 10.15 19.56 8.6549 19.56H0.743591ZM4.28412 16.6016H8.09185C9.377 16.6016 10.3027 16.3567 10.8689 15.8668C11.4415 15.3705 11.7278 14.7343 11.7278 13.9581C11.7278 13.3792 11.5847 12.8575 11.2984 12.3931C11.0121 11.9223 10.6049 11.5533 10.0768 11.286C9.54878 11.0125 8.91893 10.8757 8.18728 10.8757H4.28412V16.6016ZM4.28412 8.32766H7.78647C8.39723 8.32766 8.94756 8.21632 9.43744 7.99364C9.92733 7.76461 10.3122 7.44332 10.5922 7.02978C10.8785 6.60988 11.0216 6.11363 11.0216 5.54104C11.0216 4.78395 10.7544 4.16046 10.22 3.67058C9.69193 3.18069 8.9062 2.93575 7.86282 2.93575H4.28412V8.32766Z" fill="#090322"/>
<path d="M139.858 29.3135V28.1813H145.192V29.3135H143.204V34.6764H141.846V29.3135H139.858Z" fill="#9F824A"/>
<path d="M136.291 28.1813V34.6764H135.105L132.279 30.5884H132.232V34.6764H130.859V28.1813H132.064L134.867 32.2661H134.924V28.1813H136.291Z" fill="#9F824A"/>
<path d="M122.711 34.6764V28.1813H127.088V29.3135H124.084V30.8612H126.863V31.9934H124.084V33.5442H127.1V34.6764H122.711Z" fill="#9F824A"/>
<path d="M111.86 28.1813H113.553L115.342 32.5452H115.418L117.207 28.1813H118.9V34.6764H117.568V30.4489H117.514L115.834 34.6447H114.927L113.246 30.433H113.192V34.6764H111.86V28.1813Z" fill="#9F824A"/>
<path d="M102.968 29.3135V28.1813H108.302V29.3135H106.314V34.6764H104.957V29.3135H102.968Z" fill="#9F824A"/>
<path d="M94.6754 34.6764V28.1813H97.2379C97.7284 28.1813 98.1471 28.2691 98.4938 28.4446C98.8427 28.6179 99.108 28.8642 99.2898 29.1835C99.4738 29.5006 99.5658 29.8738 99.5658 30.303C99.5658 30.7343 99.4727 31.1054 99.2867 31.4162C99.1006 31.7249 98.831 31.9617 98.478 32.1266C98.127 32.2915 97.702 32.374 97.203 32.374H95.4873V31.2703H96.981C97.2432 31.2703 97.461 31.2344 97.6344 31.1625C97.8077 31.0906 97.9367 30.9828 98.0213 30.839C98.108 30.6952 98.1513 30.5166 98.1513 30.303C98.1513 30.0874 98.108 29.9055 98.0213 29.7575C97.9367 29.6095 97.8067 29.4975 97.6312 29.4214C97.4578 29.3431 97.239 29.304 96.9747 29.304H96.0486V34.6764H94.6754ZM98.183 31.7206L99.7973 34.6764H98.2813L96.702 31.7206H98.183Z" fill="#9F824A"/>
<path d="M86.4351 34.6764H84.9636L87.2058 28.1813H88.9754L91.2145 34.6764H89.7429L88.116 29.6656H88.0652L86.4351 34.6764ZM86.3432 32.1234H89.819V33.1954H86.3432V32.1234Z" fill="#9F824A"/>
<path d="M77.6039 34.6764V28.1813H80.1664C80.659 28.1813 81.0787 28.2754 81.4254 28.4636C81.7722 28.6496 82.0364 28.9086 82.2183 29.2406C82.4022 29.5704 82.4942 29.951 82.4942 30.3823C82.4942 30.8136 82.4012 31.1942 82.2151 31.524C82.029 31.8538 81.7595 32.1107 81.4064 32.2947C81.0554 32.4786 80.6304 32.5706 80.1315 32.5706H78.4982V31.4701H79.9095C80.1738 31.4701 80.3915 31.4246 80.5628 31.3337C80.7362 31.2407 80.8651 31.1128 80.9497 30.95C81.0364 30.7851 81.0797 30.5958 81.0797 30.3823C81.0797 30.1666 81.0364 29.9785 80.9497 29.8178C80.8651 29.655 80.7362 29.5292 80.5628 29.4404C80.3894 29.3495 80.1695 29.304 79.9031 29.304H78.9771V34.6764H77.6039Z" fill="#9F824A"/>
<path d="M69.3635 34.6764H67.892L70.1342 28.1813H71.9039L74.1429 34.6764H72.6713L71.0444 29.6656H70.9937L69.3635 34.6764ZM69.2716 32.1234H72.7475V33.1954H69.2716V32.1234Z" fill="#9F824A"/>
<path d="M124.882 19.56V4.90165H128.184V7.39242H128.355C128.661 6.55262 129.167 5.89732 129.873 5.42652C130.579 4.94936 131.422 4.71078 132.402 4.71078C133.394 4.71078 134.231 4.95255 134.912 5.43607C135.599 5.91323 136.082 6.56534 136.362 7.39242H136.515C136.839 6.57807 137.386 5.92913 138.156 5.44561C138.932 4.95573 139.852 4.71078 140.914 4.71078C142.263 4.71078 143.364 5.13705 144.216 5.98957C145.069 6.8421 145.495 8.08589 145.495 9.72096V19.56H142.031V10.2554C142.031 9.3456 141.789 8.68075 141.305 8.26085C140.822 7.83459 140.23 7.62146 139.53 7.62146C138.697 7.62146 138.045 7.88231 137.574 8.404C137.11 8.91933 136.877 9.59054 136.877 10.4176V19.56H133.49V10.1122C133.49 9.35514 133.261 8.75074 132.802 8.29903C132.351 7.84731 131.759 7.62146 131.027 7.62146C130.531 7.62146 130.079 7.7487 129.672 8.00319C129.265 8.25131 128.941 8.60441 128.699 9.06248C128.457 9.51419 128.336 10.0422 128.336 10.6467V19.56H124.882Z" fill="#090322"/>
<path fill-rule="evenodd" clip-rule="evenodd" d="M115.548 7.80279H92.0338C89.7148 7.80279 87.8348 9.68275 87.8348 12.0018C87.8348 14.3208 89.7148 16.2008 92.0338 16.2008H115.548C117.867 16.2008 119.747 14.3208 119.747 12.0018C119.747 9.68275 117.867 7.80279 115.548 7.80279ZM92.0338 4.44359C87.8595 4.44359 84.4756 7.82751 84.4756 12.0018C84.4756 16.1761 87.8595 19.56 92.0338 19.56H115.548C119.723 19.56 123.106 16.1761 123.106 12.0018C123.106 7.82751 119.723 4.44359 115.548 4.44359H92.0338Z" fill="#9F824A"/>
</svg>
