<svg width="234" height="53" viewBox="0 0 234 53" fill="none" xmlns="http://www.w3.org/2000/svg">
<path d="M24.3527 0.623252C13.6947 1.56943 4.46005 9.38882 1.54199 19.9218C-1.21594 29.8656 2.73413 40.8806 11.1858 47.1825C14.9936 50.0211 19.3529 51.3957 23.8367 52.5026C26.2032 52.5026 28.5519 52.5026 30.9184 52.5026C31.5233 51.9313 32.3418 52.0384 33.0535 51.8777C46.2382 48.9499 55.4194 36.6139 53.8003 23.9922C51.8786 9.01392 39.6014 -0.733537 24.3527 0.623252ZM8.78377 41.1305C1.7733 33.4718 1.54199 20.9037 7.91191 12.6023C14.6199 3.87241 26.1676 0.694662 36.4164 4.78288C36.968 4.99711 37.5018 5.24705 38.0178 5.51483C44.2632 8.79969 44.6902 13.8876 38.9608 17.9937C33.961 21.5821 28.3918 24.2064 23.0894 27.2592C20.545 28.7231 17.9828 30.1691 15.5274 31.7758C12.2534 33.9538 9.33536 36.4532 8.78377 41.1305ZM17.1643 47.736C15.7587 47.0754 14.6021 46.1292 13.5523 45.0224C10.9545 42.2731 10.8478 39.9523 13.3032 37.0245C15.4562 34.4716 18.392 32.9184 21.2211 31.276C26.9861 27.9554 32.8044 24.7598 38.5338 21.3857C42.128 19.2612 45.1884 16.5834 45.9001 11.6561C49.8146 16.2977 51.4338 21.2607 51.3092 26.795C50.9712 43.8977 32.7511 55.0555 17.1643 47.736Z" fill="#928E9D"/>
<path d="M144.491 38.1665C144.811 37.4345 145.31 36.2205 144.153 35.7385C142.623 35.0958 142.836 36.774 141.911 37.9165C141.626 36.3634 138.779 36.0242 140.932 34.0961C142.303 32.8643 142.73 31.329 141.555 29.8651C140.185 28.1691 138.192 28.3297 136.466 29.151C134.705 30.0079 134.58 31.7574 135.47 33.2749C136.182 34.4889 135.648 34.9887 134.972 35.8099C132.997 38.2022 133.993 41.2014 136.929 41.8441C139.616 42.4332 142.231 41.1121 145.025 41.6834C144.153 40.398 143.922 39.4161 144.491 38.1665ZM138.655 30.3471C139.527 30.3828 139.74 30.9898 139.794 31.6503C139.687 32.5072 139.42 33.3284 138.513 33.257C137.641 33.1856 137.392 32.3108 137.392 31.5432C137.374 30.7934 137.819 30.2935 138.655 30.3471ZM138.957 40.1124C137.498 40.0767 136.484 39.6482 136.449 38.1486C136.431 37.3988 136.609 36.6311 137.534 36.4348C138.014 36.3277 140.327 38.952 140.221 39.4697C140.043 40.2731 139.295 39.9517 138.957 40.1124Z" fill="#928E9D"/>
<path d="M114.885 31.7406C112.038 31.4728 110.187 33.3116 110.045 36.5786C109.903 39.8099 111.593 41.7916 114.404 41.8987C115.08 41.9165 116.433 40.7561 116.433 42.5949C116.433 43.8982 115.383 44.2195 114.315 44.2374C113.568 44.2374 112.821 44.0767 112.073 43.9517C111.54 43.8624 110.899 43.3626 110.703 44.3445C110.561 45.0229 110.899 45.4335 111.486 45.7548C115.009 47.6293 118.87 45.3799 118.906 41.4167C118.924 40.2384 118.906 39.0601 118.906 37.8997C118.906 37.3999 118.906 36.9 118.906 36.3823C118.924 32.1155 118.924 32.1155 114.885 31.7406ZM114.796 39.9885C112.714 39.8992 112.5 38.2568 112.536 36.7215C112.554 35.1683 112.945 33.4723 114.92 33.4723C117.571 33.4723 116.006 35.7396 116.611 36.7215C116.273 38.1318 117.251 40.0956 114.796 39.9885Z" fill="#928E9D"/>
<path d="M219.846 31.7754C216.91 31.4004 215.024 33.0964 214.793 36.3099C214.544 39.8447 216.252 41.8442 219.383 41.8263C219.971 41.8263 221.003 40.9872 221.092 42.3976C221.145 43.3795 220.54 43.9329 219.597 44.1293C218.672 44.3256 217.764 44.1471 216.857 43.9507C216.359 43.8436 215.7 43.2724 215.433 44.2185C215.238 44.8612 215.54 45.3254 216.127 45.6646C219.401 47.5569 223.494 45.3789 223.583 41.6478C223.618 40.4695 223.583 39.3091 223.583 38.1308C223.583 37.4524 223.583 36.7919 223.583 36.1135C223.6 32.2574 223.6 32.2574 219.846 31.7754ZM219.526 39.9875C217.551 39.9875 217.302 38.4165 217.302 36.9526C217.284 35.3101 217.551 33.4713 219.686 33.4892C222.052 33.5249 220.825 35.6136 221.234 36.774C220.878 38.0059 221.981 39.9875 219.526 39.9875Z" fill="#928E9D"/>
<path d="M159.616 28.8662C157.943 28.9197 158.548 30.223 158.406 31.1156C158.388 31.2763 158.388 31.4548 158.406 31.6154C158.637 33.365 158.139 34.2041 156.129 34.1505C154.296 34.0969 153.175 33.7935 153.513 31.669C153.584 31.2584 153.531 30.8299 153.513 30.4193C153.477 29.6517 153.46 28.9019 152.356 28.8483C151.129 28.7948 150.986 29.5267 150.986 30.455C150.986 32.9722 150.844 35.5073 151.04 38.0066C151.146 39.292 149.919 41.595 152.161 41.7021C154.616 41.8271 153.353 39.4348 153.442 38.203C153.566 36.6677 153.851 36.0072 155.595 35.9536C157.748 35.8822 158.815 36.4178 158.424 38.7207C158.335 39.2028 158.424 39.7205 158.406 40.2203C158.388 41.1487 158.548 41.8628 159.758 41.8449C160.879 41.8271 160.915 41.113 160.915 40.3096C160.915 38.6315 160.915 36.9533 160.915 35.2752C160.915 33.847 160.95 32.4188 160.897 30.9906C160.897 30.0801 161.306 28.8126 159.616 28.8662Z" fill="#928E9D"/>
<path d="M76.9493 10.9593C76.9493 10.1024 76.7891 9.44189 75.7393 9.47759C74.6895 9.5133 74.565 10.2095 74.565 11.0486C74.565 13.2266 74.5472 15.4046 74.565 17.6005C74.5828 19.1893 74.2447 20.439 72.2697 20.4926C70.1879 20.5461 69.7075 19.2786 69.7075 17.5648C69.7075 15.6367 69.7431 13.7086 69.6897 11.7806C69.6541 10.8701 70.1167 9.58471 68.4976 9.5133C66.8072 9.44189 67.2698 10.7451 67.2165 11.6556C67.1453 12.6553 67.1987 13.6729 67.1987 14.6727C67.2342 14.6727 67.252 14.6727 67.2876 14.6727C67.2876 16.0116 67.1809 17.3684 67.3054 18.6895C67.5545 21.4388 69.0669 22.617 72.1629 22.5813C75.1522 22.5456 76.7713 21.2602 76.9137 18.5288C77.0204 15.9938 76.9137 13.4766 76.9493 10.9593Z" fill="#928E9D"/>
<path d="M180.523 35.186C180.523 33.5078 180.541 31.8476 180.523 30.1694C180.505 29.2768 180.701 28.2235 179.242 28.2592C177.943 28.2771 178.05 29.2411 178.103 30.0445C178.21 31.4727 177.729 31.9725 176.252 31.7404C174.971 31.5441 173.761 32.0082 172.854 33.0258C171.484 34.5433 171.181 37.8996 172.267 39.9169C173.37 41.9699 175.238 41.7021 177.231 41.8807C180.701 42.2199 180.79 40.3989 180.541 37.9353C180.434 37.0248 180.523 36.0965 180.523 35.186ZM176.466 40.149C174.473 40.149 174.117 38.5601 174.117 36.9534C174.117 35.2931 174.402 33.4721 176.484 33.49C178.975 33.49 177.729 35.6858 178.121 36.882C177.854 38.1852 178.797 40.149 176.466 40.149Z" fill="#928E9D"/>
<path d="M80.6853 22.3326C81.7173 22.3148 81.8953 21.7078 81.9309 20.8509C81.9842 19.6012 81.6995 18.2801 82.18 17.0126C84.5286 18.53 84.2262 22.7432 88.1762 22.2434C88.1762 21.8863 88.2118 21.7078 88.1584 21.565C88.0873 21.3329 87.9983 21.0651 87.8382 20.9044C84.7066 17.5482 83.7102 14.2276 87.8382 10.8713C88.1051 10.6571 88.5143 10.2286 88.2118 9.80017C87.856 9.31816 87.2866 9.44312 86.8062 9.47883C86.0233 9.53239 85.703 10.1751 85.2938 10.6928C84.3507 11.9246 83.3899 13.1564 82.4469 14.4061C82.2689 14.3347 82.091 14.2633 81.9131 14.1919C81.9131 13.1029 81.8953 12.0317 81.9131 10.9427C81.9309 10.0858 81.7529 9.46098 80.7209 9.44312C79.7245 9.42527 79.4042 9.92514 79.422 10.8356C79.4398 14.174 79.4398 17.5303 79.422 20.8687C79.422 21.7613 79.6533 22.3505 80.6853 22.3326Z" fill="#928E9D"/>
<path d="M73.5683 39.9701C73.0701 39.9523 72.5541 39.9523 72.0559 39.9344C70.8282 39.9165 69.5293 40.2557 69.5115 38.2027C69.4937 36.3818 70.152 35.8105 71.8602 35.9711C72.5007 36.0247 73.3192 36.0426 73.2836 35.0428C73.248 34.0788 72.4651 34.0788 71.8068 34.1145C70.3477 34.2037 69.3157 33.9717 69.5649 32.115C69.8495 29.9906 71.4687 31.0974 72.5185 30.8475C73.2124 30.6868 74.1733 31.026 74.2444 29.9013C74.2978 28.7587 73.3904 28.9016 72.6431 28.848C67.0382 28.4374 67.0382 28.4374 67.0382 34.0252C67.0382 34.4358 67.0382 34.8643 67.0382 35.2749C67.0382 36.953 67.0382 38.6133 67.0382 40.2914C67.0382 41.0948 67.145 41.8268 68.2126 41.8268C69.9741 41.8268 71.7356 41.8268 73.4971 41.8089C74.0665 41.8089 74.4402 41.5411 74.458 40.9163C74.4757 40.3093 74.1555 40.0058 73.5683 39.9701Z" fill="#928E9D"/>
<path d="M193.761 31.7042C190.736 31.6506 188.904 33.543 188.886 36.81C188.868 40.077 190.647 41.9693 193.708 41.9515C196.661 41.9336 198.245 40.1662 198.245 36.8635C198.263 33.5251 196.715 31.7577 193.761 31.7042ZM193.637 40.1305C191.519 40.1841 191.573 38.3453 191.537 36.8457C191.519 35.3282 191.519 33.5251 193.583 33.4894C195.594 33.4716 195.683 35.2389 195.79 36.7743C195.665 38.2917 195.647 40.0948 193.637 40.1305Z" fill="#928E9D"/>
<path d="M162.481 22.4394C165.435 22.4929 167.143 20.7255 167.232 17.53C167.321 14.2808 165.737 12.3706 162.855 12.2813C159.777 12.1921 157.979 14.0309 157.944 17.2979C157.926 20.5113 159.581 22.3858 162.481 22.4394ZM160.417 17.1729C160.453 15.6911 160.666 14.1201 162.57 14.1023C164.812 14.0666 164.438 16.0125 164.759 17.2443C164.51 18.8689 164.598 20.7613 162.463 20.6184C160.488 20.4935 160.382 18.7261 160.417 17.1729Z" fill="#928E9D"/>
<path d="M208.886 31.6857C205.932 31.7214 204.348 33.5245 204.348 36.8272C204.348 40.1656 205.896 41.8973 208.886 41.9151C211.982 41.933 213.565 40.1477 213.53 36.6665C213.512 33.3816 211.893 31.65 208.886 31.6857ZM208.85 40.1299C206.786 40.0585 206.839 38.2197 206.839 36.7201C206.839 35.2026 206.928 33.3995 209.01 33.4888C211.056 33.578 210.967 35.3811 211.056 36.7736C210.985 38.4518 210.896 40.2013 208.85 40.1299Z" fill="#928E9D"/>
<path d="M88.9057 31.7045C85.9876 31.7224 84.2617 33.579 84.2261 36.7746C84.1905 40.1131 85.9343 41.9876 89.0125 41.9519C91.9127 41.9162 93.5497 40.0416 93.5141 36.7746C93.4963 33.4898 91.8594 31.6867 88.9057 31.7045ZM88.8701 40.1488C86.735 40.1845 86.9485 38.2385 86.6816 36.8282C86.9307 35.3643 86.7883 33.4541 88.9057 33.4898C90.8985 33.5255 91.1121 35.2929 91.0943 36.8282C91.0765 38.3457 90.8629 40.1309 88.8701 40.1488Z" fill="#928E9D"/>
<path d="M104.297 31.6876C101.343 31.6698 99.6531 33.4729 99.5997 36.7042C99.5463 40.114 101.201 41.9706 104.297 41.9349C107.251 41.8992 108.834 40.1318 108.834 36.8113C108.834 33.5264 107.251 31.7233 104.297 31.6876ZM106.325 36.9362C106.308 38.4894 106.112 40.239 104.084 40.1675C102.02 40.0783 102.18 38.2216 102.091 36.7399C102.162 35.1867 102.233 33.4015 104.315 33.5086C106.308 33.5978 106.343 35.4009 106.325 36.9362Z" fill="#928E9D"/>
<path d="M102.714 20.8148C102.411 19.2973 101.379 20.4399 100.757 20.5113C99.1374 20.6541 97.625 20.5113 96.7887 18.9938C95.6855 16.9408 95.6856 14.7449 96.8955 12.7633C97.7673 11.3172 99.262 11.0316 100.899 11.3529C101.504 11.4779 102.429 12.3527 102.696 11.0316C102.963 9.78193 102.002 9.51414 101.023 9.31776C96.7175 8.46084 93.4614 11.3529 93.4436 16.0839C93.4258 20.7255 96.5574 23.4034 100.952 22.475C101.824 22.243 102.963 22.1001 102.714 20.8148Z" fill="#928E9D"/>
<path d="M170.309 31.99C169.384 31.74 168.885 32.2756 168.672 33.1147C168.192 34.8821 167.711 36.6495 167.231 38.4169C167.035 38.4347 166.839 38.4704 166.661 38.4883C166.145 36.7566 165.594 35.0428 165.131 33.2932C164.829 32.1864 164.188 31.6508 163.103 32.0078C161.928 32.4006 162.711 33.2575 162.907 33.8645C163.654 36.2567 164.455 38.649 165.256 41.0412C165.629 42.148 165.754 43.2727 164.615 43.9511C163.939 44.3618 163.049 44.6831 163.583 45.5579C164.206 46.5398 165.238 46.1113 166.056 45.6828C166.821 45.2722 167.266 44.5224 167.533 43.7012C168.601 40.3449 169.651 36.9887 170.718 33.6324C170.896 33.0076 171.341 32.2756 170.309 31.99Z" fill="#928E9D"/>
<path d="M232.976 31.991C231.908 31.6875 231.517 32.4195 231.232 33.3121C230.681 35.0438 230.521 36.9005 229.382 38.775C228.706 36.6148 228.136 34.7403 227.531 32.8658C227.247 31.9553 226.517 31.759 225.716 32.0089C224.702 32.3124 225.183 33.08 225.361 33.6692C226.126 36.0614 226.891 38.4536 227.727 40.8102C228.207 42.2027 228.439 43.4345 226.766 44.1843C226.072 44.4878 225.948 45.0412 226.232 45.6125C226.482 46.1302 227.069 46.0945 227.567 46.041C229.186 45.8803 229.791 44.6842 230.218 43.3809C231.25 40.2032 232.282 37.0076 233.261 33.8298C233.474 33.1872 234.239 32.3481 232.976 31.991Z" fill="#928E9D"/>
<path d="M122.481 20.9929C122.463 18.9935 122.516 16.9761 122.41 14.9767C122.321 13.1914 121.271 12.3166 119.438 12.2631C114.225 12.1381 114.225 12.1203 114.243 17.2975C114.243 18.5472 114.243 19.7968 114.243 21.0644C114.243 21.8499 114.581 22.314 115.435 22.2962C116.324 22.2962 116.591 21.7606 116.591 21.0108C116.609 19.5112 116.627 18.0116 116.609 16.4941C116.609 15.2623 116.663 14.0483 118.371 14.1019C119.919 14.1376 119.99 15.2444 120.008 16.387C120.008 17.8866 120.025 19.3862 120.025 20.9037C120.025 21.7963 120.346 22.3319 121.342 22.2962C122.285 22.2962 122.499 21.7428 122.481 20.9929Z" fill="#928E9D"/>
<path d="M128.317 32.0082C127.285 31.669 126.84 32.401 126.573 33.3115C126.057 35.0432 125.826 36.8641 124.741 38.8457C124.065 36.632 123.46 34.7575 122.908 32.883C122.623 31.919 121.894 31.8119 121.129 31.9904C120.079 32.2403 120.524 32.9901 120.702 33.5971C121.485 36.0608 122.267 38.5423 123.139 40.988C123.531 42.1127 123.655 43.2375 122.623 43.9337C121.876 44.4514 120.951 44.8263 121.734 45.7189C122.41 46.4866 123.46 46.076 124.26 45.5226C124.99 45.0227 125.292 44.2372 125.559 43.416C126.573 40.2382 127.605 37.0426 128.584 33.8649C128.762 33.2401 129.509 32.3831 128.317 32.0082Z" fill="#928E9D"/>
<path d="M142.694 12.2802C139.758 12.1553 137.979 13.9584 137.872 17.154C137.765 20.6352 139.58 22.4919 143.317 22.4383C143.477 22.4205 143.904 22.4026 144.313 22.3133C145.114 22.1348 146.217 22.0991 146.039 20.9566C145.843 19.7604 144.865 20.4388 144.206 20.5459C143.174 20.7423 142.178 20.6888 141.288 20.1353C140.683 19.7604 140.292 19.1356 140.434 18.4394C140.594 17.6896 141.324 17.8145 141.893 17.8145C142.979 17.7967 144.082 17.7788 145.167 17.8145C146.235 17.8502 146.644 17.4218 146.608 16.3328C146.555 13.9584 145.078 12.3874 142.694 12.2802ZM142.445 16.2435C141.822 16.0114 140.719 16.672 140.63 15.5115C140.541 14.5118 141.413 14.0833 142.32 14.0298C143.245 13.9584 144.064 14.3333 144.117 15.3509C144.189 16.6184 143.085 16.0471 142.445 16.2435Z" fill="#928E9D"/>
<path d="M111.824 21.0287C111.628 19.6183 110.525 20.6002 109.831 20.6359C109.066 20.6716 108.319 20.6716 107.607 20.386C106.842 20.0647 106.326 19.4755 106.362 18.6722C106.415 17.4939 107.447 17.8866 108.105 17.8509C109.102 17.7795 110.116 17.8152 111.112 17.8152C111.877 17.8152 112.34 17.601 112.429 16.7084C112.66 14.6553 111.237 12.6559 109.173 12.3167C106.201 11.8347 104.031 13.6378 103.782 16.7976C103.497 20.4038 105.33 22.4569 109.03 22.4569C109.155 22.4569 109.493 22.4747 109.813 22.3855C110.703 22.1891 112.02 22.3319 111.824 21.0287ZM108.408 14.0127C109.369 14.0484 110.08 14.6018 110.045 15.4944C109.991 16.6191 108.906 16.03 108.283 16.2442C107.643 16.0478 106.522 16.6013 106.504 15.5123C106.486 14.5125 107.358 13.977 108.408 14.0127Z" fill="#928E9D"/>
<path d="M152.072 14.1202C153.406 14.5129 152.943 15.5841 152.979 16.4232C153.05 17.9228 153.015 19.4402 153.015 20.9577C153.015 21.8682 153.388 22.368 154.367 22.3323C155.31 22.2966 155.434 21.6718 155.452 20.9577C155.47 20.1186 155.345 19.2617 155.488 18.4405C155.772 16.8516 154.385 14.6915 157.107 13.8345C157.552 13.6917 157.303 12.8527 156.555 12.5849C154.954 11.9957 155.061 11.121 156.466 10.4783C157.071 10.1926 157.605 10.1212 157.356 9.33572C157.125 8.60377 156.466 8.69303 155.879 8.63947C154.687 8.60377 151.431 12.3528 151.644 13.5489C151.698 13.7631 151.894 14.0666 152.072 14.1202Z" fill="#928E9D"/>
<path d="M127.943 14.6734C132.107 13.4059 130.488 12.8703 127.854 12.1205C126.787 7.8359 125.897 9.28195 125.008 12.1919C124.954 12.3704 124.598 12.4418 124.385 12.5668C123.424 13.1381 123.424 13.7629 124.438 14.1557C125.452 14.5484 125.221 15.3339 125.239 16.0302C125.274 17.2085 125.257 18.3689 125.274 19.5471C125.31 21.5288 126.395 22.4214 128.424 22.4214C129.189 22.2964 130.292 22.4928 130.452 21.1896C130.541 20.5469 130.132 20.4576 129.527 20.3683C127.961 20.172 126.556 15.1019 127.943 14.6734Z" fill="#928E9D"/>
<path d="M81.6281 33.5795C82.1619 33.6331 82.8025 34.133 82.9626 33.1511C83.105 32.2585 82.5 31.9728 81.7883 31.8478C79.7776 31.5087 77.8916 31.6693 76.5749 33.4546C75.276 35.222 75.276 38.6854 76.5571 40.3456C77.9272 42.1309 79.8666 42.113 81.8416 41.7917C82.5712 41.6667 83.1227 41.2383 82.927 40.417C82.7135 39.5066 82.0018 40.0243 81.6459 40.0064C78.9948 40.1136 77.945 39.0603 78.0873 36.5966C78.2119 34.2579 79.2972 33.3118 81.6281 33.5795Z" fill="#928E9D"/>
<path d="M96.5745 28.2401C95.7027 28.2579 95.3824 28.7399 95.3824 29.5076C95.3646 33.2031 95.3646 36.8807 95.3824 40.5761C95.3824 41.3795 95.7383 41.808 96.6101 41.808C97.5176 41.8258 97.7845 41.3259 97.7845 40.5404C97.7845 38.7016 97.7845 36.845 97.7845 35.0062C97.7845 35.0062 97.7845 35.0062 97.8023 35.0062C97.8023 33.2388 97.8023 31.4892 97.8023 29.7218C97.7667 28.9363 97.6599 28.2401 96.5745 28.2401Z" fill="#928E9D"/>
<path d="M201.234 28.2952C199.633 28.3309 200.095 29.6877 200.078 30.5803C200.024 33.5974 200.042 36.6144 200.078 39.6315C200.095 40.5598 199.722 41.8274 201.377 41.7917C202.871 41.756 202.497 40.5777 202.533 39.7565C202.586 38.1676 202.551 36.5787 202.551 34.972C202.551 33.5438 202.622 32.1156 202.533 30.7053C202.444 29.7591 203.031 28.2595 201.234 28.2952Z" fill="#928E9D"/>
<path d="M173.975 14.1907C174.491 14.1729 174.508 13.6195 174.473 13.2089C174.419 12.6019 174.028 12.4055 173.459 12.3519C169.544 12.0306 169.028 12.5126 169.028 16.583C169.028 16.8329 169.028 17.0828 169.028 17.3328C169.046 17.3328 169.046 17.3328 169.064 17.3328C169.064 18.6717 169.046 19.9928 169.064 21.3317C169.081 22.0637 169.58 22.3136 170.238 22.3136C170.914 22.3136 171.377 22.0458 171.412 21.3317C171.448 20.4213 171.412 19.4929 171.448 18.5825C171.555 16.7079 170.718 14.2979 173.975 14.1907Z" fill="#928E9D"/>
<path d="M187.409 31.8123C183.922 31.1875 182.925 32.0266 182.925 35.5971C182.925 36.0077 182.925 36.4361 182.925 36.8467C182.925 37.8465 182.89 38.8462 182.943 39.846C182.978 40.7029 182.694 41.8454 184.171 41.8097C185.541 41.774 185.131 40.7029 185.185 39.9531C185.238 39.114 185.203 38.2749 185.203 37.4537C185.185 35.7042 184.865 33.7761 187.605 33.7226C188.227 33.7047 188.334 33.1156 188.245 32.58C188.174 32.1158 187.872 31.9016 187.409 31.8123Z" fill="#928E9D"/>
<path d="M134.277 20.244C134.331 19.4228 134.295 18.5838 134.295 17.7447C134.277 16.0487 134.046 14.2635 136.626 14.2456C137.266 14.2456 137.391 13.6743 137.302 13.1388C137.231 12.6924 136.964 12.4425 136.484 12.3354C133.334 11.6927 131.875 12.871 131.875 16.1023C131.875 16.5129 131.875 16.9413 131.875 17.3519C131.875 18.3517 131.84 19.3514 131.893 20.3512C131.929 21.2259 131.662 22.3506 133.138 22.2792C134.544 22.2257 134.224 21.0831 134.277 20.244Z" fill="#928E9D"/>
</svg>
