<svg width="119" height="79" viewBox="0 0 119 79" fill="none" xmlns="http://www.w3.org/2000/svg">
<path d="M16.8368 6.03841C21.4859 7.12733 24.8005 9.82019 26.4724 14.323C27.0297 15.824 27.851 16.4126 29.391 16.1477C31.7376 15.824 34.0842 15.5738 36.4161 15.1471C42.5025 14.0434 47.797 11.277 52.3728 7.15676C54.7047 5.0525 54.5288 4.59633 51.7569 3.28669C48.8823 1.9329 45.8171 2.0359 42.7958 1.75632C38.1613 1.31486 33.5415 0.770406 28.8777 0.976417C24.5365 1.16771 20.4153 2.12419 16.7048 4.46389C16.2795 4.72877 15.5755 4.90535 15.6928 5.55281C15.7661 6.08256 16.4261 5.93541 16.8368 6.03841Z" fill="#928E9D"/>
<path d="M40.2281 31.1134C40.1547 30.4217 39.3628 30.7602 38.8934 30.6866C34.9043 30.0244 31.7217 28.1703 29.7564 24.5357C29.0671 23.2702 28.4805 21.9311 27.9085 20.6068C27.5565 19.768 27.0285 19.5473 26.1339 19.562C16.4689 19.6944 6.87727 26.2426 3.21074 35.2777C3.06407 35.6309 2.75608 36.0282 3.00541 36.3372C3.37206 36.7934 3.85604 36.4255 4.25203 36.2783C5.55732 35.8516 6.84794 35.4543 8.22655 35.2336C13.257 34.4095 18.2729 35.1306 23.2887 35.3072C28.7738 35.3072 34.0536 34.3507 39.0254 31.9521C39.4654 31.7314 40.3014 31.7314 40.2281 31.1134Z" fill="#928E9D"/>
<path d="M30.4451 19.1507C28.9638 19.2978 28.8025 19.857 29.4625 21.0489C31.7651 25.2722 35.4756 27.141 40.0221 27.5236C44.8619 27.1115 49.4964 26.2581 52.547 22.1673C56.6682 16.6197 59.2054 10.351 60.1147 3.44966C60.1881 2.94935 60.452 2.1253 59.9827 1.97815C59.2494 1.75743 59.1761 2.69919 58.8681 3.15536C53.7349 10.8955 46.7539 15.9869 37.7049 18.0912C35.3143 18.6357 32.8797 18.9005 30.4451 19.1507Z" fill="#928E9D"/>
<path d="M24.2711 16.5447C25.7817 16.3976 25.855 15.8237 25.151 14.6465C22.7605 10.7028 16.586 8.1277 12.1862 9.31962C10.9836 9.64335 9.97159 10.2614 9.19428 11.2767C3.40116 18.8256 1.4359 27.6546 0.438599 37.2342C0.951913 36.8516 1.11324 36.7927 1.17191 36.675C1.4359 36.1305 1.65589 35.5567 1.90521 34.9975C6.30505 25.1531 12.6702 17.6484 24.2711 16.5447Z" fill="#928E9D"/>
<path d="M8.12433 49.7268C9.56161 51.5074 10.9696 53.3026 12.3775 55.1126C13.3161 56.3045 14.6068 55.9808 15.7507 55.7895C16.924 55.5982 16.5427 54.4651 16.5574 53.6999C16.5867 50.183 16.5134 46.6808 16.6014 43.1639C16.6454 41.6188 16.2494 40.9861 14.5774 41.0449C13.0962 41.1038 12.2602 41.3539 12.4215 43.0609C12.5388 44.194 12.4508 45.3417 12.4215 46.4895C12.4215 46.8427 12.5535 47.3283 12.1429 47.5049C11.7029 47.6962 11.5122 47.2106 11.2775 46.931C9.94293 45.2682 8.59364 43.6054 7.28836 41.9131C6.21773 40.5299 4.72178 41.0449 3.47516 41.2068C2.21387 41.3687 2.82985 42.7077 2.77119 43.5171C2.66852 45.121 2.74186 46.725 2.74186 48.3289C2.74186 50.3154 2.80052 52.302 2.72719 54.2885C2.65386 55.9366 3.70982 55.8925 4.82445 55.9072C5.95374 55.9219 6.99504 55.9366 6.89237 54.3032C6.81904 52.9347 6.87771 51.5515 6.90704 50.183C6.92171 49.8298 6.77504 49.3442 7.21503 49.1824C7.68434 48.9911 7.88967 49.4472 8.12433 49.7268Z" fill="#928E9D"/>
<path d="M74.3561 54.7021C75.9547 55.6733 77.7293 56.0853 79.5919 56.0412C79.9733 56.0412 80.3546 56.0706 80.7359 56.0412C83.5958 55.8352 85.4584 54.3048 85.7517 51.9504C86.0744 49.3752 84.9597 47.9626 81.8065 46.9914C81.0146 46.7412 80.1786 46.5794 79.3866 46.3292C78.8293 46.1526 77.9787 46.0055 78.14 45.2697C78.316 44.431 79.2253 44.4898 79.8706 44.6223C80.7506 44.8136 81.6012 45.1814 82.4518 45.4904C84.1091 46.079 84.2558 44.5045 84.9011 43.7246C85.6491 42.7976 84.7837 42.3414 84.1238 42.003C81.8798 40.811 79.4893 40.4873 77.0547 41.1936C74.8401 41.8411 73.6815 43.3862 73.6375 45.5199C73.5935 47.6536 74.4588 48.8455 76.8054 49.7137C77.876 50.111 79.0053 50.3317 80.0906 50.6849C80.5892 50.8467 81.2199 51.0086 81.1612 51.6855C81.0732 52.539 80.3106 52.3918 79.7239 52.436C78.4626 52.5243 77.3187 52.0828 76.2627 51.4501C74.5468 50.42 74.1508 52.0681 73.4908 52.8774C72.6108 53.8781 73.6815 54.2901 74.3561 54.7021Z" fill="#928E9D"/>
<path d="M110.406 50.1549C110.421 46.7558 107.825 44.2395 104.231 44.1659C100.624 44.0923 97.7344 46.741 97.7344 50.1108C97.7344 53.4658 100.418 56.0557 103.938 56.0851C107.663 56.0998 110.391 53.5983 110.406 50.1549ZM101.973 50.1255C101.958 48.8306 102.677 47.8594 104.041 47.8447C105.522 47.83 106.094 48.9336 106.299 50.2138C106.079 51.5382 105.478 52.4505 104.07 52.3916C102.677 52.3475 102.002 51.4057 101.973 50.1255Z" fill="#928E9D"/>
<path d="M51.0671 53.2141C51.0817 52.2282 51.0671 51.2276 51.0671 50.2417H51.0817C51.0817 48.7849 51.0671 47.3428 51.0817 45.886C51.1111 44.1496 49.8498 44.4881 48.8378 44.4586C47.8112 44.4292 46.7845 44.385 46.8285 45.9007C46.8579 47.4311 46.8285 48.9614 46.7845 50.4771C46.7552 51.3747 46.4766 52.2282 45.3913 52.1988C44.3353 52.184 44.0126 51.3894 43.998 50.4477C43.9686 48.9909 43.91 47.5488 43.9833 46.092C44.0713 44.5175 43.1473 44.385 41.9594 44.4145C40.7861 44.4439 39.6128 44.3115 39.6861 46.092C39.7741 48.1521 39.6568 50.2122 39.7888 52.2723C39.9648 55.1271 42.1354 56.7457 44.8339 55.8923C45.9779 55.5244 46.9165 55.6127 48.0312 55.804C50.6857 56.3043 51.0377 55.9364 51.0671 53.2141Z" fill="#928E9D"/>
<path d="M29.3461 52.0385C29.3461 51.8914 29.3461 51.7295 29.3461 51.5823C29.3314 51.5823 29.3168 51.5823 29.2874 51.5823C29.2874 50.5081 29.3608 49.4487 29.2728 48.3745C29.1114 46.2996 27.9235 45.0047 25.9436 44.5191C24.1396 44.0629 22.321 44.2248 20.5171 44.6663C19.3878 44.9458 19.1825 45.5639 19.4905 46.6969C20.1064 48.9042 21.6024 47.3297 22.673 47.5651C23.4503 47.7417 24.7556 47.418 24.7263 48.4333C24.6823 49.5664 23.509 48.7718 22.8783 48.7865C20.3558 48.8601 18.7572 49.743 18.3172 51.4499C17.5399 54.4812 19.9451 56.6296 23.289 55.938C23.9343 55.8056 24.4476 55.3641 25.2249 55.4966C29.3461 56.2765 29.3461 56.2323 29.3461 52.0385ZM23.5383 53.2893C22.7317 53.2157 22.145 52.9509 22.277 52.1857C22.4237 51.3028 23.157 51.0085 23.9783 51.0232C24.6236 51.0379 25.2543 51.2586 25.0929 52.0827C24.9316 52.9509 24.2423 53.2599 23.5383 53.2893Z" fill="#928E9D"/>
<path d="M64.1049 55.4673C66.4368 56.6298 69.986 56.1442 71.3646 54.555C71.8779 53.9516 71.8633 53.5543 71.2913 53.0246C70.5433 52.3183 69.9127 51.6561 68.7687 52.5096C67.9328 53.1276 66.8915 53.0246 65.9675 52.4507C65.7035 52.2888 65.4542 51.8768 65.6888 51.7002C66.4075 51.1411 67.3021 51.4795 68.1087 51.4059C68.3287 51.3912 68.5634 51.4059 68.7981 51.4059V51.4206C69.1794 51.4206 69.5607 51.4206 69.942 51.4206C72.4793 51.3912 72.8752 50.8762 72.2886 48.4188C71.6433 45.7553 69.59 44.1661 66.7888 44.1661C63.9876 44.1661 61.861 45.8583 61.201 48.6395C60.541 51.4795 61.729 54.2754 64.1049 55.4673ZM66.7595 47.3887C67.4928 47.3593 68.1967 47.7272 68.1527 48.4923C68.1087 49.3458 67.2434 48.9485 66.7301 49.0809C66.2315 48.9485 65.3662 49.3311 65.4395 48.3746C65.4982 47.7271 66.1435 47.4034 66.7595 47.3887Z" fill="#928E9D"/>
<path d="M93.0113 56.0696C93.8766 56.1138 95.0646 55.9666 96.0619 55.1131C96.6192 54.6423 97.5578 54.2891 97.3232 53.4062C97.1032 52.5674 96.1645 52.2437 95.4752 51.8022C94.8006 51.3608 94.3606 52.0083 93.8326 52.2437C92.894 52.6704 92.0433 52.5821 91.354 51.7875C90.6941 51.0371 90.5181 50.0953 90.9434 49.2271C91.6034 47.8439 92.6887 47.2994 94.0966 48.2265C95.6219 49.2271 96.4872 47.888 97.1178 47.0934C97.9245 46.0781 96.5899 45.563 95.9299 45.0922C93.9646 43.6942 90.8847 43.8855 88.8608 45.4306C86.9395 46.8874 86.1329 49.6391 86.9249 52.023C87.7462 54.5834 89.8141 56.0402 93.0113 56.0696Z" fill="#928E9D"/>
<path d="M31.5611 52.3474C31.7225 55.0108 32.7784 56.0262 35.9023 56.0262C36.137 55.982 36.8116 55.879 37.4569 55.6877C38.4102 55.3934 38.3369 54.5694 38.2929 53.7895C38.2489 53.0979 38.2929 52.3327 37.2516 52.3915C35.5943 52.4651 35.7116 51.2732 35.7263 50.199C35.7556 49.1101 35.4037 47.771 37.2369 47.771C38.3662 47.771 38.2929 46.8881 38.2929 46.1229C38.2929 45.3577 38.3662 44.4601 37.2369 44.4895C35.9756 44.5337 35.6823 43.8568 35.697 42.7826C35.7116 41.885 35.125 41.5465 34.3624 41.6054C33.4384 41.679 32.0598 41.0903 31.7371 42.2381C31.4291 43.3418 31.0331 44.2394 30.3438 45.137C30.0212 45.5637 30.0065 46.7851 30.3438 47.0941C32.0304 48.6098 31.4585 50.5374 31.5611 52.3474Z" fill="#928E9D"/>
<path d="M117.123 52.1992C115.788 52.0227 116.419 50.4187 116.331 49.4328C116.272 48.6823 116.272 47.7847 117.401 47.8141C118.648 47.8436 118.897 47.1814 118.927 46.0925C119 43.9294 115.392 44.415 115.964 41.9134C115.979 41.8692 115.319 41.5897 114.967 41.5749C113.573 41.5308 111.901 41.1188 111.975 43.4732C111.989 43.8558 111.725 44.1648 111.388 44.4002C110.376 45.136 110.464 46.5634 110.919 47.0637C112.429 48.7118 111.916 50.5953 112.033 52.42C112.195 54.9068 113.368 56.0252 116.287 56.0252C117.299 55.8927 118.545 56.0987 118.78 54.6714C119.029 53.3912 118.956 52.4347 117.123 52.1992Z" fill="#928E9D"/>
<path d="M58.4733 44.7098C57.7693 45.1071 57.3733 44.9011 56.6694 44.6215C54.0588 43.5914 52.8415 44.4743 52.8268 47.2113C52.8268 48.1237 52.8268 49.0507 52.8268 49.9631C52.8268 51.0373 52.8562 52.1115 52.8122 53.1709C52.7535 54.7455 52.7388 55.9521 55.0121 55.9521C57.1827 55.9521 57.08 54.7749 57.036 53.3181C56.992 51.1697 57.1973 49.3156 59.8373 48.4915C61.3479 48.0207 60.6586 46.1813 60.4679 45.0188C60.2479 43.768 59.1333 44.3419 58.4733 44.7098Z" fill="#928E9D"/>
<path d="M6.01217 71.8593C3.54826 71.0794 2.75629 71.7857 2.75629 75.0083C3.06428 75.8177 2.08165 77.245 3.63626 77.8042C6.05617 78.6724 7.59611 77.3333 7.21479 74.8023C7.15613 74.4492 7.28812 74.0666 7.33212 73.6987C7.44945 72.6833 6.92147 72.1536 6.01217 71.8593ZM4.75088 72.9924C5.19087 72.9776 5.66018 72.9188 5.83618 73.478C5.79218 74.096 5.33753 74.1696 4.88288 74.2137C4.50156 74.2579 4.10557 74.1696 4.06157 73.684C4.04691 73.2278 4.34023 73.0071 4.75088 72.9924ZM5.14687 76.627C4.64822 76.5976 3.98824 76.6711 4.12024 75.8618C4.2229 75.2585 4.78021 75.3762 5.20553 75.3909C5.64552 75.4056 6.10017 75.4939 6.2175 76.0384C6.0415 76.5828 5.60152 76.6564 5.14687 76.627Z" fill="#928E9D"/>
<path d="M49.4092 64.972C50.1572 64.8101 50.4358 65.9285 50.9785 66.4288C51.1985 66.6348 51.3598 66.9144 51.5505 67.1351C51.8438 67.4735 52.1518 67.915 52.6798 67.6796C53.1931 67.4588 53.1344 66.9291 53.1344 66.4876C53.1491 65.4134 53.1491 64.3392 53.1197 63.2797C53.1051 62.853 53.2517 62.2202 52.6798 62.132C51.8731 62.0142 52.0198 62.75 51.9318 63.2356C51.8438 63.7212 52.1811 64.4275 51.5358 64.6335C51.0518 64.7807 50.8611 64.1185 50.5385 63.8242C49.8492 63.1767 49.4972 61.7052 48.3972 62.0878C47.136 62.5293 48.0599 63.9861 47.7959 64.7218C47.7959 65.5753 47.7666 66.1786 47.8106 66.7966C47.8399 67.2528 47.9133 67.7826 48.5439 67.709C49.0279 67.6501 48.9839 67.1792 49.0425 66.8114C49.1452 66.1492 48.7199 65.1191 49.4092 64.972Z" fill="#928E9D"/>
<path d="M89.1845 64.8985C89.2138 64.1333 89.1552 63.3387 88.0259 63.3387C86.7646 63.3387 85.3566 62.8384 84.638 64.3982C84.1687 65.4135 84.418 66.3847 85.2833 67.0469C85.7379 67.4001 86.3686 67.5031 86.9112 67.7091C86.5593 68.5479 84.8873 67.2824 85.1953 68.5773C85.4006 69.4308 86.7792 69.3425 87.6445 69.004C89.6245 68.2388 89.1258 66.4289 89.1845 64.8985ZM86.7206 66.2964C86.2219 66.267 85.8553 65.9727 85.8113 65.443C85.7526 64.7808 86.2219 64.5306 86.6472 64.3393C87.3512 64.4276 87.8059 64.7366 87.7912 65.3547C87.7619 65.9286 87.3512 66.3259 86.7206 66.2964Z" fill="#928E9D"/>
<path d="M54.6298 75.5086C54.6738 75.2879 54.6298 75.0524 54.6298 74.817H54.6152C54.6152 74.1254 54.6298 73.4485 54.6152 72.7569C54.6005 72.3596 54.4832 71.9475 53.9845 72.0211C53.6765 72.0652 53.5445 72.4037 53.5299 72.7274C53.5152 73.11 53.5152 73.4926 53.4859 73.8752C53.4712 74.1695 53.5299 74.5227 53.1779 74.6551C52.8405 74.7875 52.6499 74.4785 52.4299 74.2725C51.6086 73.4779 51.1979 71.5355 49.922 72.1388C48.7927 72.6686 49.614 74.4932 49.438 75.7293C49.394 76.0236 49.4233 76.3473 49.4527 76.6416C49.4967 77.0684 49.4233 77.6423 50.098 77.5981C50.5673 77.5687 50.626 77.1273 50.6553 76.7299C50.714 76.1413 50.4646 75.1996 51.0073 75.0524C51.7113 74.8464 51.9899 75.8323 52.4739 76.2738C53.0019 76.7594 53.2512 77.8777 54.1458 77.554C55.0111 77.245 54.4832 76.2149 54.6298 75.5086Z" fill="#928E9D"/>
<path d="M37.9111 65.6645C37.8524 65.3702 37.8964 65.0612 37.8964 64.7522C37.8964 64.7522 37.8964 64.7522 37.9111 64.7522C37.9111 64.1489 37.9257 63.5308 37.9111 62.9275C37.8964 62.4861 37.9404 61.9122 37.4418 61.7356C36.7965 61.5296 36.7525 62.1329 36.6645 62.5449C36.4885 63.472 35.7552 63.1483 35.2125 63.2071C33.6579 63.369 33.0859 64.4138 33.1886 65.7381C33.3059 67.2243 34.1859 67.9601 35.8285 67.9012C37.3978 67.8424 38.2337 67.3862 37.9111 65.6645ZM35.5645 66.6504C34.9779 66.6946 34.5525 66.3709 34.4499 65.7528C34.3472 65.0612 34.6699 64.5609 35.3592 64.4285C36.0925 64.2813 36.4298 64.7816 36.6058 65.3114C36.5911 66.106 36.2831 66.5916 35.5645 66.6504Z" fill="#928E9D"/>
<path d="M111.389 73.198C110.905 73.2274 110.48 73.2716 110.377 72.6388C110.304 72.1974 110.216 71.6382 109.629 71.7118C108.881 71.8148 109.13 72.5211 109.086 72.992C109.042 73.5217 109.072 74.0515 109.072 74.8755C109.365 75.5671 108.47 77.0092 109.512 77.5242C110.377 77.951 111.668 78.2159 112.753 77.5242C113.736 76.8915 113.853 75.9497 113.662 74.9344C113.442 73.6836 112.606 73.1539 111.389 73.198ZM111.433 76.6119C110.817 76.6413 110.48 76.2587 110.421 75.6554C110.362 74.9344 110.758 74.5812 111.286 74.4046C112.02 74.4341 112.357 74.8019 112.401 75.3758C112.445 76.0527 112.166 76.5678 111.433 76.6119Z" fill="#928E9D"/>
<path d="M18.8451 73.1249C18.4638 73.3015 17.9358 73.1396 17.4959 73.2426C16.1319 73.5958 15.7653 74.6258 15.9119 75.8766C16.0732 77.201 16.8359 77.8926 18.2145 77.8484C20.5318 77.7896 20.5318 77.8043 20.5611 74.6994C20.5611 74.6258 20.5611 74.5523 20.5611 74.464C20.5757 72.3009 20.5904 72.3303 18.8451 73.1249ZM18.0238 76.5977C17.4225 76.5094 17.0852 76.0679 17.0999 75.5088C17.1145 74.8466 17.4812 74.361 18.2145 74.4051C18.9185 74.4493 19.2411 74.9202 19.2411 75.6265C19.1091 76.2887 18.7425 76.7007 18.0238 76.5977Z" fill="#928E9D"/>
<path d="M80.2959 62.3686C79.5773 63.8695 78.9466 65.4146 78.2866 66.9302C78.1547 67.2393 78.1987 67.563 78.5066 67.7101C78.6533 67.7837 79.0053 67.7101 79.1079 67.5777C80.4279 65.7383 81.6745 66.2975 83.0238 67.5924C83.4638 68.0192 83.8451 67.6954 83.9038 67.0921C83.9184 66.7389 81.9239 62.3686 81.6452 62.1626C81.1319 61.7652 80.5746 61.7947 80.2959 62.3686ZM80.9559 65.1497C80.7359 65.135 80.5306 65.032 80.5892 64.7524C80.6332 64.4728 80.7212 64.2079 81.1465 64.2079C81.2345 64.3404 81.4105 64.4875 81.4545 64.6641C81.5279 65.0173 81.2785 65.1644 80.9559 65.1497Z" fill="#928E9D"/>
<path d="M103.748 72.2717C103.293 71.4476 102.56 71.7419 102.179 72.5218C101.548 73.8315 100.947 75.1558 100.375 76.4802C100.228 76.8039 99.9934 77.2601 100.375 77.5397C100.888 77.9223 101.152 77.4367 101.475 77.1277C102.501 76.1123 103.572 75.9652 104.584 77.1424C104.775 77.3631 104.877 77.6868 104.921 77.7604C105.787 77.6427 105.933 77.2895 105.772 76.8922C105.127 75.3324 104.555 73.7432 103.748 72.2717ZM103.132 75.1853C102.78 75.2147 102.545 75.0381 102.604 74.6702C102.633 74.4789 102.795 74.1846 102.927 74.1699C103.279 74.1111 103.396 74.4054 103.469 74.7144C103.499 74.9792 103.396 75.1705 103.132 75.1853Z" fill="#928E9D"/>
<path d="M64.7061 71.8294C63.8555 71.5351 64.2661 72.83 63.7235 73.0507C63.3128 73.2126 62.8288 73.1537 62.3889 73.242C60.9076 73.5363 60.3796 74.5517 60.5556 75.9349C60.7316 77.3034 61.6262 77.8626 62.9608 77.8478C65.2048 77.8184 65.2048 77.8184 65.1901 74.7871C65.1901 74.4781 65.2194 74.1691 65.1754 73.8748C65.0874 73.1684 65.5714 72.1384 64.7061 71.8294ZM62.9755 76.5971C62.3449 76.5971 61.9782 76.2733 61.9049 75.6553C61.8315 75.052 62.0662 74.5664 62.6822 74.4487C63.4595 74.3015 63.8555 74.7871 63.8848 75.4787C63.9141 76.0232 63.6208 76.5088 62.9755 76.5971Z" fill="#928E9D"/>
<path d="M5.4393 63.0447C5.87928 63.1624 6.37793 63.3831 6.45126 62.6621C6.49526 62.1912 6.0846 62.0146 5.71795 61.9411C4.64732 61.7351 3.45937 61.5438 2.91672 62.7357C2.31541 64.0159 2.90205 64.8988 4.28067 65.3108C4.73532 65.4433 5.51263 65.5316 5.3953 66.2085C5.2633 66.9295 4.55933 66.6058 4.07535 66.591C3.62069 66.5763 2.97538 65.9289 2.79939 66.8265C2.66739 67.4887 3.3567 67.6947 3.84069 67.7977C4.98465 68.0478 6.23127 68.1361 6.77392 66.8118C7.33123 65.4433 6.55392 64.6781 5.29263 64.2661C4.82332 64.1189 4.06068 64.0748 4.16334 63.3979C4.25134 62.6474 4.92598 62.9123 5.4393 63.0447Z" fill="#928E9D"/>
<path d="M23.6414 73.2118C23.0988 73.0794 22.8641 72.8881 22.7321 72.4025C22.6295 72.0199 22.4682 71.6226 21.9842 71.7992C21.5589 71.961 21.6175 72.4172 21.6028 72.7851C21.5735 73.3884 21.6028 74.0064 21.6028 74.6098H21.5882C21.5882 75.3014 21.5735 75.9783 21.5882 76.6699C21.6028 77.0525 21.6322 77.5233 22.1162 77.5381C22.5708 77.5675 22.6441 77.126 22.7321 76.7434C22.9228 75.9341 22.3802 74.5067 23.6708 74.5656C24.8734 74.6245 24.2428 76.0665 24.4774 76.8759C24.5801 77.2585 24.6974 77.6263 25.1814 77.5969C25.5774 77.5675 25.592 77.2143 25.68 76.9347C26.1787 75.0512 25.4894 73.6827 23.6414 73.2118Z" fill="#928E9D"/>
<path d="M59.5871 74.5371C58.9124 73.4924 58.2524 72.0797 57.2552 71.7118C56.0819 71.2704 57.6951 73.1245 56.4778 73.4629C55.8912 73.6248 56.2139 74.184 56.7565 74.3458C56.9765 74.4047 57.3285 74.3458 57.4018 74.4636C57.6951 74.9639 57.1378 74.8461 56.9618 74.9197C56.0525 75.317 55.2459 75.8173 55.7592 76.9504C56.3312 78.2306 57.5191 77.745 58.5458 77.7745C59.8804 77.8186 59.7337 76.9357 59.7777 75.9204C59.7191 75.5672 59.8364 74.9344 59.5871 74.5371ZM57.6511 76.7444C57.3285 76.7444 57.0352 76.5972 57.1525 76.2146C57.1965 76.0528 57.4605 75.8762 57.6511 75.8468C57.9591 75.7879 58.2671 75.8615 58.3111 76.2588C58.2231 76.6267 57.9591 76.7444 57.6511 76.7444Z" fill="#928E9D"/>
<path d="M93.8177 73.1839C93.5244 73.0809 93.2604 73.0367 93.1284 72.6983C92.9817 72.3157 93.0697 71.6388 92.4244 71.7418C91.7058 71.8448 91.8818 72.5511 91.8524 73.0367C91.8085 73.5665 91.8378 74.0962 91.8378 74.626C91.8378 74.8614 91.8084 75.0821 91.8378 75.3029C91.9551 76.0828 91.4271 77.4218 92.3804 77.4807C93.5537 77.5543 92.8644 76.2005 93.0551 75.4941C93.1871 75.0233 93.3044 74.5671 93.8177 74.5082C94.5217 74.4199 94.6977 74.9497 94.7563 75.5236C94.8003 75.9062 94.771 76.2888 94.8003 76.6566C94.8297 77.0245 94.8003 77.4807 95.299 77.5395C95.827 77.5837 95.827 77.1275 95.9003 76.7596C96.355 74.7437 95.8563 73.8902 93.8177 73.1839Z" fill="#928E9D"/>
<path d="M115.524 73.3155C115.246 73.4332 114.894 73.5215 114.982 73.9188C115.026 74.0954 115.246 74.3161 115.422 74.3456C117.211 74.581 115.92 74.787 115.422 75.0224C114.19 75.6258 113.867 76.5381 114.879 77.5387C115.774 78.4069 116.947 77.8036 117.93 77.6417C118.736 77.5093 118.428 76.5087 118.501 75.9054C118.472 73.7275 117.196 72.6386 115.524 73.3155ZM116.302 76.7147C116.14 76.6853 115.876 76.4645 115.876 76.3321C115.876 75.9789 116.17 75.8318 116.507 75.8465C116.756 75.8612 116.918 75.9789 116.947 76.2438C116.888 76.6117 116.624 76.7883 116.302 76.7147Z" fill="#928E9D"/>
<path d="M28.73 73.1531C27.3073 73.3149 26.53 74.0948 26.5447 75.5516C26.5447 77.0231 27.366 77.7883 28.7886 77.8619C30.7392 77.9649 30.5339 76.258 30.6952 75.169C30.8859 73.933 29.9326 73.2855 28.73 73.1531ZM28.7153 74.3891C28.906 74.3597 29.1259 74.4333 29.1553 74.8012C29.0379 74.8747 28.862 75.066 28.7153 75.0513C28.554 75.0366 28.4073 74.8306 28.2606 74.7129C28.422 74.6099 28.554 74.4186 28.7153 74.3891ZM28.862 76.7141C28.5833 76.6258 28.3193 76.5375 28.4806 76.2874C28.5686 76.155 28.862 76.1402 29.0673 76.1402C29.1699 76.1402 29.2579 76.3168 29.3459 76.4198C29.1699 76.5228 28.9939 76.6258 28.862 76.7141Z" fill="#928E9D"/>
<path d="M57.6672 67.6798C58.4738 67.4297 58.1218 66.5026 58.2098 65.9287C58.1805 63.7509 56.8899 62.6767 55.2033 63.3389C54.8073 63.5007 54.4406 63.9716 54.8073 64.1188C56.8605 64.9428 54.822 65.0164 54.5873 65.3107C53.8687 66.1936 53.8833 67.0765 54.778 67.6651C55.6579 68.239 56.7432 67.9594 57.6672 67.6798ZM55.5259 66.3261C55.5553 66.1642 55.8046 65.9582 55.9806 65.914C56.2739 65.8404 56.5819 65.9287 56.6699 66.2966C56.6112 66.6498 56.3766 66.8116 56.0686 66.8411C55.7166 66.8705 55.4673 66.6792 55.5259 66.3261Z" fill="#928E9D"/>
<path d="M67.1697 73.3303C66.8177 73.4774 66.451 73.654 66.759 74.1543C67.0377 74.5958 67.9176 74.0807 67.8736 74.6988C67.859 74.9489 66.9057 75.0372 66.5244 75.361C65.835 75.9496 65.8204 76.7147 66.4217 77.3769C67.3017 78.3481 68.4456 77.7595 69.4576 77.6712C70.4695 77.5829 70.0002 76.6117 70.1322 76.0673C70.1762 73.7276 68.9149 72.5798 67.1697 73.3303ZM67.991 76.7589C67.815 76.7442 67.551 76.5676 67.5216 76.4057C67.4337 76.0526 67.6976 75.8907 68.0203 75.8465C68.3283 75.8465 68.6509 75.9201 68.6363 76.288C68.6069 76.6264 68.299 76.7883 67.991 76.7589Z" fill="#928E9D"/>
<path d="M32.8215 73.2585C32.4695 73.3468 32.0149 73.3763 32.0296 73.8766C32.0442 74.2297 32.3376 74.318 32.6602 74.3769C33.7895 74.5535 33.3055 74.6565 32.6749 74.9802C31.1789 75.7748 30.9589 76.9668 32.1176 77.6731C33.0709 78.2617 34.0535 77.7761 34.9628 77.6142C35.7694 77.4671 35.4321 76.4811 35.5201 75.9073C35.5054 73.7589 34.5521 72.8318 32.8215 73.2585ZM33.3495 76.746C33.1149 76.6577 32.7042 76.6872 32.8509 76.2457C32.9095 76.0838 33.1442 75.922 33.3348 75.8631C33.6428 75.7748 33.9508 75.8778 33.9802 76.2604C33.9948 76.643 33.6868 76.7166 33.3495 76.746Z" fill="#928E9D"/>
<path d="M86.7199 73.2426C86.06 73.169 85.1213 73.0219 84.9893 73.8165C84.828 74.7288 86.0013 74.0667 86.3679 74.6258C85.84 74.8613 85.2386 75.0084 84.8133 75.3616C83.992 76.009 84.0507 76.8331 84.7987 77.4953C85.7373 78.334 86.9106 77.9367 87.8199 77.5983C88.8612 77.201 88.3039 75.9943 88.3185 75.1409C88.3185 74.1108 87.8199 73.375 86.7199 73.2426ZM86.148 76.7448C86.0453 76.6418 85.8106 76.4946 85.796 76.3475C85.7666 76.009 86.0453 75.8472 86.3533 75.8325C86.6613 75.8177 86.9399 75.9502 86.8959 76.3181C86.8519 76.7006 86.5293 76.7154 86.148 76.7448Z" fill="#928E9D"/>
<path d="M43.6022 73.1991C42.0769 73.258 41.2703 73.67 41.681 75.3769C41.9009 76.0833 41.1676 77.4223 42.1649 77.5253C43.3529 77.6431 42.8249 76.2893 42.9716 75.5535C43.0742 75.0974 43.0742 74.5823 43.6462 74.494C44.4088 74.391 44.4675 75.0091 44.5262 75.5388C44.5848 75.995 44.5702 76.4511 44.6142 76.9073C44.6582 77.3046 44.8488 77.6431 45.3328 77.5989C45.7288 77.5548 45.7728 77.231 45.8021 76.922C45.8315 76.3923 45.8315 75.8478 45.8315 75.3181C45.8461 73.8466 45.2302 73.1402 43.6022 73.1991Z" fill="#928E9D"/>
<path d="M74.4294 66.9873C74.3414 66.5164 73.8867 66.6047 73.4907 66.7224C73.0654 66.8401 72.4788 67.0756 72.4348 66.4134C72.4054 65.9278 73.0067 66.0896 73.3441 66.0749C74.004 66.0455 74.8547 66.2515 74.8547 65.2067C74.8547 64.3091 74.4293 63.6028 73.4907 63.3085C71.9068 62.8229 70.6015 63.8529 70.6162 65.5746C70.6308 67.2669 71.9508 68.2969 73.5347 67.8407C73.9894 67.7083 74.532 67.5317 74.4294 66.9873ZM72.2734 64.8389C72.2294 64.471 72.4934 64.265 72.8454 64.3385C73.0214 64.368 73.1681 64.574 73.4321 64.7653C73.1534 64.9271 72.9921 65.1037 72.8161 65.1037C72.6254 65.089 72.2881 64.9419 72.2734 64.8389Z" fill="#928E9D"/>
<path d="M92.8207 67.8713C93.2753 67.783 93.8326 67.6359 93.774 67.0914C93.686 66.3704 93.1287 66.7382 92.718 66.8265C92.322 66.9148 91.838 66.9001 91.838 66.4439C91.8527 65.9142 92.41 66.1202 92.7473 66.0908C93.3927 66.0319 94.1846 66.2674 94.3313 65.1196C94.1553 64.3838 93.8766 63.5745 92.9233 63.3391C91.9847 63.1036 91.0754 63.1919 90.4448 64.0307C89.7848 64.8989 89.6821 65.8553 90.2541 66.8118C90.8554 67.7683 91.75 68.0626 92.8207 67.8713ZM91.75 64.634C91.8087 64.4868 92.1167 64.3544 92.2927 64.3691C92.454 64.3838 92.6007 64.6046 92.85 64.8106C92.586 64.943 92.4247 65.0902 92.234 65.1049C91.926 65.1196 91.5887 65.0607 91.75 64.634Z" fill="#928E9D"/>
<path d="M66.4365 65.6495C66.4365 65.1051 66.4512 64.7225 66.4365 64.3546C66.4072 63.9867 66.3925 63.5453 65.8939 63.4864C65.4099 63.4276 65.3219 63.8249 65.2192 64.2075C65.0139 65.0021 65.5859 66.4442 64.3392 66.4294C63.0926 66.4147 63.7526 64.9579 63.4299 64.178C63.3273 63.9279 63.0926 63.7219 62.9166 63.4864C62.7553 63.6189 62.462 63.7366 62.4473 63.8837C62.3447 65.0904 62.0073 66.3706 62.8433 67.4153C63.5913 68.3424 64.7352 67.9009 65.6445 67.7685C67.0085 67.5478 66.2165 66.2676 66.4365 65.6495Z" fill="#928E9D"/>
<path d="M81.2199 73.1995C79.6653 73.2436 78.932 73.7145 79.3133 75.392C79.5333 76.0984 78.8147 77.4374 79.8267 77.5257C81.0146 77.6287 80.384 76.2602 80.5746 75.5539C80.692 75.0977 80.7506 74.5974 81.2933 74.5386C82.0266 74.465 82.1146 75.0536 82.1733 75.598C82.2172 75.9806 82.2172 76.3632 82.2466 76.7311C82.2906 77.1137 82.3932 77.5552 82.8186 77.5993C83.4785 77.6582 83.4492 77.0843 83.4785 76.6575C83.5079 76.2014 83.4785 75.7452 83.4785 75.289C83.5079 73.7145 82.7746 73.1553 81.2199 73.1995Z" fill="#928E9D"/>
<path d="M108.719 63.4855C108.059 63.1764 107.824 63.8092 107.648 64.3242C107.237 65.4573 106.812 65.7957 106.255 64.3978C106.064 63.9269 105.903 63.1617 105.243 63.4266C104.407 63.7503 105.038 64.4419 105.155 64.957C105.434 66.1195 106.886 67.1937 105.199 68.4886C104.832 68.7682 105.58 69.1066 105.991 69.1508C106.812 69.0919 107.252 68.5622 107.531 67.9147C107.971 66.8552 108.352 65.781 108.733 64.7068C108.88 64.2948 109.232 63.7209 108.719 63.4855Z" fill="#928E9D"/>
<path d="M24.4331 65.0321C23.0545 65.7385 22.7905 66.9598 23.8025 67.6367C24.7118 68.24 25.7677 67.931 26.6917 67.725C27.557 67.5337 27.117 66.5625 27.2343 66.0033C27.2197 63.7078 26.1051 62.6924 24.3598 63.3399C24.1691 63.4135 23.9198 63.5459 23.8611 63.7078C23.7291 64.0757 23.9785 64.2817 24.3158 64.3111C25.4157 64.37 25.5037 64.5024 24.4331 65.0321ZM25.2397 65.8415C25.5917 65.9298 25.8704 66.0769 25.7971 66.4301C25.7384 66.7538 25.4597 66.901 25.1371 66.901C24.8144 66.901 24.5064 66.7685 24.5064 66.4301C24.5064 65.9739 24.9171 65.9003 25.2397 65.8415Z" fill="#928E9D"/>
<path d="M16.9965 65.6491C16.9231 64.0304 16.0872 63.1916 14.5472 63.2211C13.1246 63.2358 12.2886 64.0157 12.3033 65.5019C12.318 67.0617 13.1539 67.9152 14.6939 67.8858C16.1458 67.871 16.8938 67.0323 16.9965 65.6491ZM13.4912 65.443C13.5352 64.7809 13.9606 64.2806 14.6939 64.3688C15.3832 64.4424 15.7205 64.9427 15.7498 65.5902C15.6325 66.326 15.2365 66.7821 14.5325 66.7085C13.8139 66.6497 13.4326 66.1052 13.4912 65.443Z" fill="#928E9D"/>
<path d="M12.7743 74.3019C12.7597 73.8311 12.657 73.3455 12.041 73.4043C11.5424 73.4632 11.6157 73.9194 11.5277 74.2872C11.3517 75.0818 11.997 76.4651 10.6478 76.4651C9.35713 76.4504 9.87045 75.0818 9.72379 74.2578C9.70912 74.1842 9.72379 74.1106 9.70912 74.0371C9.63579 73.7428 9.57713 73.419 9.16647 73.4632C8.77049 73.5073 8.72649 73.8458 8.71183 74.1401C8.68249 74.6698 8.69716 75.1996 8.68249 75.7293C8.66783 77.0537 9.09314 77.9366 10.6478 77.8483C12.0557 77.76 13.273 77.5834 12.789 75.8176C12.7743 75.2143 12.789 74.7581 12.7743 74.3019Z" fill="#928E9D"/>
<path d="M37.1782 73.4191C36.0929 73.6104 36.7382 74.8317 36.4889 75.5527C36.6649 76.2444 36.1516 77.4068 37.0902 77.4951C37.9555 77.5687 37.5888 76.4504 37.6768 75.847C37.7648 75.229 37.7942 74.508 38.6008 74.5227C39.4221 74.5521 39.3635 75.3173 39.4074 75.9059C39.4368 76.2885 39.4368 76.6711 39.4661 77.039C39.4954 77.3627 39.6421 77.657 40.0088 77.6276C40.1848 77.6129 40.4781 77.4069 40.5074 77.245C40.7127 76.0383 40.8887 74.7728 40.1554 73.7134C39.3488 72.595 38.1168 73.2572 37.1782 73.4191Z" fill="#928E9D"/>
<path d="M97.5872 63.265C96.8686 63.265 95.842 63.0149 95.49 63.7212C94.9473 64.8101 95.1527 66.0903 95.3433 67.2822C95.3727 67.4294 95.6807 67.6354 95.8273 67.6207C95.9886 67.5913 96.1793 67.3558 96.238 67.1645C96.326 66.8849 96.3113 66.5612 96.3553 66.2669C96.4433 65.5459 96.2673 64.4569 97.2939 64.5305C98.3059 64.5894 97.9686 65.693 98.0712 66.3846C98.1006 66.6053 98.0859 66.8408 98.1299 67.0615C98.1886 67.3558 98.2766 67.6795 98.6432 67.709C99.1272 67.7384 99.2739 67.3853 99.3179 66.9879C99.3472 66.6054 99.3325 66.2375 99.3325 65.8549C99.3472 64.5747 99.3032 63.2797 97.5872 63.265Z" fill="#928E9D"/>
<path d="M32.2495 67.3119C32.4402 66.1053 32.6895 64.8398 31.9122 63.7656C31.1936 62.7649 30.0349 63.2358 29.1403 63.3977C27.835 63.6478 28.5537 64.8839 28.3483 65.4872C28.3483 65.9876 28.319 66.2966 28.363 66.5909C28.4217 67.0029 28.275 67.6356 28.935 67.6209C29.3896 67.6062 29.375 67.0912 29.419 66.7233C29.4483 66.5026 29.419 66.2671 29.4483 66.0317C29.5216 65.3695 29.4336 64.4866 30.4016 64.516C31.2229 64.5455 31.0909 65.3548 31.1496 65.9434C31.1789 66.3996 31.1936 66.8557 31.2816 67.2972C31.3109 67.4591 31.6042 67.6651 31.7655 67.6651C31.9415 67.6945 32.2202 67.4738 32.2495 67.3119Z" fill="#928E9D"/>
<path d="M43.5719 67.6948C44.3639 67.3269 44.2906 66.6353 44.2613 65.7965C44.2466 65.1638 40.844 65.1049 43.9093 64.0601C43.9386 64.0454 43.9533 63.7364 43.8799 63.6628C43.1613 63.0154 42.3253 63.0742 41.5774 63.4862C40.9174 63.8541 40.6534 64.5752 41.196 65.2226C41.6067 65.7082 42.2227 66.0172 42.692 66.3704C42.3107 67.2975 40.7414 65.7671 41.1374 67.2975C41.3574 68.1362 42.692 68.1068 43.5719 67.6948Z" fill="#928E9D"/>
<path d="M102.896 67.8711C103.351 67.7976 103.879 67.621 103.879 67.106C103.864 66.3702 103.263 66.6645 102.867 66.6939C101.928 66.7675 101.371 66.3261 101.401 65.399C101.43 64.7221 101.899 64.3248 102.647 64.3689C103.116 64.3984 103.85 64.8693 103.85 63.9716C103.835 63.1623 102.984 63.3095 102.456 63.2065C101.43 63.2359 100.667 63.6332 100.257 64.575C99.8899 65.4137 99.9632 66.2231 100.491 66.9588C101.078 67.7681 101.928 68.0183 102.896 67.8711Z" fill="#928E9D"/>
<path d="M61.2003 67.7243C61.7283 67.2681 61.2443 66.9885 60.9363 66.6501C60.291 65.929 60.3643 65.1786 60.9217 64.4134C61.2883 63.9131 60.555 62.2356 59.8657 62.1326C59.7484 62.1914 59.543 62.265 59.3964 62.3974C58.6337 63.1038 59.0297 67.1798 59.9097 67.7096C60.3203 67.945 60.8337 68.048 61.2003 67.7243Z" fill="#928E9D"/>
<path d="M19.7393 63.2366C19.1967 62.957 19.2114 61.8975 18.4341 62.1771C17.7447 62.4272 17.7007 63.2366 17.4954 63.987C18.2141 64.8552 17.7007 66.0324 18.0821 67.0331C18.3754 67.7982 19.05 68.122 19.7393 67.7688C20.546 67.3715 19.9447 66.9742 19.578 66.5769C18.9914 65.9294 18.9914 65.1348 19.578 64.5168C20.0033 64.0606 20.7366 63.7516 19.7393 63.2366Z" fill="#928E9D"/>
<path d="M11.453 67.1198C11.4677 66.1928 10.705 66.7372 10.2651 66.7372C9.47309 66.7225 8.90111 66.3694 8.88645 65.5747C8.87178 64.7654 9.41443 64.3681 10.2064 64.3534C10.7051 64.3387 11.5704 65.0303 11.4824 63.8972C11.4237 63.1762 10.5731 63.2645 9.95708 63.2203C8.41713 63.3086 7.62516 64.2209 7.66916 65.7072C7.71316 67.1345 8.62246 67.885 10.0451 67.8997C10.6464 67.8997 11.4384 67.8703 11.453 67.1198Z" fill="#928E9D"/>
<path d="M22.4094 64.8844C21.9841 63.9133 23.084 62.015 21.6468 61.9267C20.6641 61.8678 21.1481 63.8544 21.1921 64.8992C21.2361 65.8115 20.5028 67.4743 21.8081 67.5185C22.7761 67.5479 22.1454 65.8409 22.4094 64.8844Z" fill="#928E9D"/>
<path d="M107.384 71.8745C106.284 71.8892 107.046 73.5226 106.782 74.2584C106.782 75.0677 106.768 75.7446 106.782 76.4215C106.797 76.9218 106.709 77.6428 107.457 77.5987C108.161 77.5546 108.058 76.8482 108.073 76.3332C108.102 75.6563 108.161 74.9647 108.058 74.3025C107.912 73.4343 108.645 71.8598 107.384 71.8745Z" fill="#928E9D"/>
<path d="M67.4497 66.5185C67.4937 67.0188 67.3911 67.7104 68.1537 67.681C68.755 67.6515 68.711 67.0482 68.7257 66.6068C68.7404 65.9151 68.7844 65.2383 69.371 64.7379C69.7083 64.4584 70.2363 64.1935 69.9723 63.6637C69.6643 63.0604 69.0043 63.3547 68.535 63.3547C66.8484 63.3989 67.6991 64.7821 67.4497 65.4295C67.4351 65.9151 67.4204 66.2242 67.4497 66.5185Z" fill="#928E9D"/>
<path d="M74.5313 73.3741C72.7127 73.2269 73.6366 74.6837 73.3727 75.3017C73.3727 75.7579 73.358 76.0669 73.3727 76.3612C73.402 76.8763 73.27 77.5826 73.9886 77.6267C74.7219 77.6709 74.6486 76.9498 74.6779 76.4348C74.7073 75.8315 74.7073 75.2134 75.2352 74.772C75.5579 74.4924 76.1446 74.2864 75.9392 73.7419C75.6899 73.0945 75.0153 73.4182 74.5313 73.3741Z" fill="#928E9D"/>
<path d="M14.3131 71.8589C13.3158 71.9178 14.2251 73.5512 13.6971 74.4047C14.2251 75.42 12.9932 77.3182 14.4891 77.3771C15.4131 77.4213 15.1931 75.1993 14.8851 74.1987C14.6211 73.3746 15.4277 71.7854 14.3131 71.8589Z" fill="#928E9D"/>
<path d="M71.6574 71.8734C70.7334 71.844 71.1147 73.7864 71.1441 74.8164C71.1734 75.7582 70.4694 77.5093 71.76 77.4799C72.9627 77.4504 72.0387 75.6699 72.42 74.684C71.9654 73.7422 72.8893 71.9028 71.6574 71.8734Z" fill="#928E9D"/>
<path d="M39.5541 64.0453C40.1408 63.9717 40.2874 63.3684 40.2874 62.8092C40.2874 62.4119 40.1848 61.9999 39.7301 61.9852C38.8648 61.941 39.0702 62.5738 39.1288 63.1918C39.3488 63.3831 38.7035 64.163 39.5541 64.0453Z" fill="#928E9D"/>
<path d="M98.0422 74.6399C97.6169 74.6399 97.0449 74.684 97.1916 75.3168C97.3089 75.8465 97.8809 75.7582 98.3062 75.7435C98.7168 75.7288 99.2301 75.8171 99.3181 75.1843C99.0835 74.5074 98.5115 74.6399 98.0422 74.6399Z" fill="#928E9D"/>
</svg>
