<svg width="155" height="33" viewBox="0 0 155 33" fill="none" xmlns="http://www.w3.org/2000/svg">
<path d="M22.4105 14.2412C20.6747 13.1406 19.1077 11.8828 17.6733 10.3953C15.9979 8.65372 13.8884 7.60154 11.5138 7.12987C11.1522 7.0573 10.7786 6.88799 10.2603 7.19034C12.7072 8.04902 14.9492 8.99235 16.709 10.7581C17.3599 11.4112 18.3122 11.9796 18.1193 13.1043C18.0108 13.7211 16.1063 14.3016 14.9733 14.1565C14.8527 14.1444 14.7322 14.1081 14.6237 14.096C12.659 13.7695 11.2848 12.5238 10.2603 10.9637C9.03077 9.1012 7.64456 7.52897 5.06505 6.77914C7.00571 5.81162 8.69326 5.37624 10.429 5.12226C13.8402 4.6385 16.5644 5.76324 18.5051 8.64163C20.9279 12.2577 19.9033 11.5684 24.2427 11.6772C25.3155 11.7014 25.6168 11.2781 25.6048 10.2501C25.5565 7.56526 25.5927 4.88038 25.5927 2.18341C25.5927 0.478144 25.5927 0.478137 23.857 0.466043C23.7364 0.466043 23.6159 0.466043 23.4953 0.466043C21.1448 0.466043 21.1328 0.453955 20.2649 2.65507C20.072 3.15093 19.9033 3.34444 19.4453 2.92114C16.7693 0.381392 13.5268 0.0548516 10.0553 0.453955C5.98114 0.925623 2.31678 3.93704 1.30426 7.80713C0.18326 12.0763 1.56944 15.7408 5.40255 18.3048C7.00571 19.3811 8.46424 20.5906 9.82632 21.9693C11.6344 23.8076 13.8402 24.9928 16.3715 25.5249C16.6608 25.5854 16.9742 25.7547 17.3117 25.3919C16.8778 25.2105 16.4921 25.0412 16.0943 24.8839C14.2501 24.1704 12.5143 23.2754 11.1402 21.812C10.5254 21.1469 9.32005 20.5301 9.91068 19.4658C10.5013 18.4257 11.8031 18.4378 12.9362 18.462C13.0206 18.462 13.0929 18.4983 13.1652 18.5104C15.0697 18.8248 16.4439 19.9737 17.4925 21.4855C18.8064 23.3964 20.1323 25.2105 22.8083 25.791C21.6631 26.4925 20.6747 26.7948 19.6984 27.0609C15.0094 28.3912 11.3933 27.46 9.29595 23.7592C7.8977 21.3162 6.18605 20.6631 3.65475 20.9413C2.64223 21.0501 2.23241 21.3525 2.24446 22.3684C2.28062 25.0895 2.25653 27.8228 2.25653 30.544C2.25653 32.2129 2.32883 32.1767 4.02842 32.3097C5.92087 32.4548 7.45171 32.2976 7.65663 29.9151C7.70484 29.3829 8.04234 29.2741 8.47628 29.6732C11.6223 32.5878 15.347 32.866 19.2403 31.8138C23.1217 30.7737 25.8579 28.3307 26.6896 24.2913C27.5816 20.0826 26.1592 16.6116 22.4105 14.2412Z" fill="#928E9D"/>
<path d="M102.268 27.4242C101.472 27.3033 101.436 28.0289 101.267 28.5369C100.556 30.6291 100.544 30.7259 98.3261 30.7743C94.3845 30.8589 95.2404 31.2338 95.156 27.8112C95.1198 26.1422 95.614 25.7915 97.2413 26.1422C97.9886 26.2995 98.0971 26.8921 98.2779 27.4605C98.4105 27.8838 98.6395 28.1861 99.1217 28.1499C99.6762 28.1136 99.7003 27.6782 99.7003 27.267C99.7123 26.0697 99.7123 24.8603 99.7003 23.6629C99.7003 23.2276 99.7364 22.7317 99.0976 22.6712C98.519 22.6108 98.3744 23.0462 98.2056 23.4574C97.7596 24.5095 97.0002 24.8482 95.8069 24.5821C94.7703 24.3402 95.2524 23.4936 95.1801 22.901C95.1078 22.3931 95.1921 21.8609 95.168 21.3409C95.1319 20.6273 95.4332 20.3129 96.1565 20.325C97.1569 20.3492 98.1574 20.3371 99.1578 20.3371C100.074 20.3371 100.653 20.7967 100.93 21.6674C101.026 21.9698 101.147 22.2721 101.255 22.5745C101.4 22.9857 101.629 23.288 102.123 23.2034C102.617 23.1187 102.605 22.7317 102.605 22.3689C102.617 21.5707 102.581 20.7604 102.629 19.9622C102.678 19.0793 102.316 18.7649 101.436 18.7649C98.2056 18.8011 94.9631 18.777 91.7327 18.777C91.2144 18.777 90.6238 18.7286 90.6358 19.5147C90.6358 20.2524 91.1782 20.3492 91.7207 20.3008C92.7211 20.2161 92.914 20.7362 92.9019 21.607C92.8658 24.2556 92.8537 26.9042 92.9019 29.5407C92.914 30.4598 92.6609 30.8952 91.6845 30.8105C91.1421 30.7622 90.5997 30.8105 90.6238 31.5846C90.6599 32.3223 91.2144 32.3465 91.7448 32.3465C93.3841 32.3465 95.0234 32.3465 96.6627 32.3465C98.3382 32.3465 100.014 32.3344 101.701 32.3586C102.509 32.3707 102.87 32.032 102.834 31.2096C102.798 30.3631 102.858 29.5286 102.822 28.682C102.786 28.2224 103.015 27.5451 102.268 27.4242Z" fill="#928E9D"/>
<path d="M89.0436 24.4119C88.4891 24.3756 87.9225 24.3998 87.3681 24.3998C87.3681 24.3877 87.3681 24.3756 87.3681 24.3756C86.8498 24.3756 86.3315 24.3635 85.8132 24.3756C85.3792 24.3877 85.0176 24.4965 84.9814 25.0408C84.9573 25.4882 85.0417 25.8632 85.5841 25.8873C86.2953 25.9115 86.223 26.2381 85.994 26.746C85.2587 28.3666 84.9573 28.4271 83.8725 27.0484C83.7519 26.8912 83.6314 26.7339 83.5109 26.5767C82.5104 25.331 82.5104 25.331 83.7519 24.2667C85.1261 23.0815 85.3551 21.5335 84.3426 20.3604C83.2698 19.1268 81.2327 18.9212 79.726 19.8887C78.3157 20.7958 77.7853 22.4768 78.6893 23.9886C79.3282 25.065 79.1233 25.5003 78.1108 26.0688C76.5438 26.9637 75.9531 28.4997 76.3629 30.0477C76.7366 31.4869 78.1951 32.5512 79.8947 32.66C81.1363 32.7447 82.2814 32.4907 83.2577 31.6804C83.776 31.245 84.1135 31.0757 84.6921 31.7651C85.8855 33.2042 88.1154 32.9019 89.0556 31.2692C89.2485 30.9306 89.5377 30.5557 89.0918 30.2049C88.694 29.9026 88.3685 30.0598 88.0792 30.4468C87.6694 31.0031 87.1632 31.245 86.5725 30.6766C86.018 30.1445 85.6323 29.6002 86.3194 28.8383C86.7654 28.3303 87.1029 27.7257 87.4525 27.1451C87.8382 26.4921 88.1275 25.7664 89.1159 25.8511C89.5016 25.8873 89.6342 25.5487 89.6463 25.1859C89.6222 24.7747 89.5016 24.4361 89.0436 24.4119ZM81.739 20.6627C82.6671 20.7232 83.0287 21.3763 83.0046 22.247C82.9925 23.0815 82.0764 24.2788 81.522 24.2305C81.0398 24.1942 80.2684 22.8397 80.2925 21.8358C80.3648 21.1465 80.8349 20.6023 81.739 20.6627ZM82.5707 30.4589C81.6666 31.0394 80.7023 31.1724 79.726 30.6887C78.8822 30.2654 78.605 29.4914 78.605 28.4513C78.5567 27.7498 79.0268 27.1693 79.6054 26.6372C80.0755 26.2139 80.4974 26.1655 80.9193 26.6856C81.5461 27.4596 82.185 28.2215 82.8359 28.9834C83.3542 29.6002 83.1975 30.0719 82.5707 30.4589Z" fill="#928E9D"/>
<path d="M31.1017 15.245C31.5115 15.3176 31.9936 15.3297 32.1503 14.8822C32.4637 14.0114 32.8977 14.2896 33.428 14.6282C34.5732 15.3538 35.8509 15.4385 37.1406 15.2571C39.1777 14.9789 40.6603 13.3341 40.8412 11.254C40.9979 9.42776 39.9733 8.14579 37.8397 7.48061C36.9598 7.20245 36.0678 6.98476 35.2 6.6945C34.754 6.54937 34.2959 6.35587 33.8982 6.10189C33.0303 5.55766 32.8254 4.73526 33.1026 3.79192C33.3678 2.89696 34.1031 2.58253 34.971 2.57043C35.9473 2.54624 36.767 2.98163 37.3817 3.71936C37.8157 4.23941 38.1531 4.83202 38.5148 5.40044C38.792 5.83582 39.1657 5.96886 39.6478 5.8721C40.1902 5.77535 40.1902 5.33997 40.1902 4.94087C40.2023 3.93706 40.1902 2.93325 40.1902 1.92945C40.1902 1.60291 40.1179 1.27636 39.7443 1.15542C39.3826 1.04657 38.9005 1.01029 38.7558 1.33683C38.2978 2.35273 37.7674 1.8327 37.1647 1.54244C35.5134 0.732137 33.9102 0.853069 32.3914 1.89316C29.9566 3.57423 30.2097 7.15408 32.8977 8.36348C34.308 9.00447 35.8268 9.40357 37.2853 9.97199C38.1893 10.3227 38.7317 11 38.575 12.028C38.4063 13.1527 37.6589 13.6486 36.5862 13.7453C35.2 13.8663 34.0669 13.4672 33.2714 12.2699C32.8977 11.7014 32.524 11.133 32.1383 10.5767C31.8852 10.2018 31.5115 10.0929 31.0776 10.2018C30.6316 10.2985 30.5713 10.6734 30.5593 11.0484C30.5472 11.5684 30.5593 12.0884 30.5593 12.6085C30.5593 13.1648 30.5472 13.7332 30.5593 14.2896C30.5593 14.725 30.5834 15.1603 31.1017 15.245Z" fill="#928E9D"/>
<path d="M74.8329 12.3306C74.411 12.1008 74.1578 12.2943 73.9529 12.645C73.8926 12.7539 73.8324 12.8506 73.7601 12.9474C73.4828 13.3586 73.1815 13.7698 72.6029 13.6004C71.9881 13.4311 71.8917 12.9111 71.8917 12.3548C71.8797 11.4719 71.8556 10.589 71.8917 9.70617C71.9158 8.92005 71.5904 8.0009 72.0846 7.35992C72.5547 6.74312 73.4467 7.17851 74.1337 7.05757C74.2181 7.04547 74.2904 7.04548 74.3748 7.02129C74.7485 6.94872 74.9052 6.69475 74.9052 6.33193C74.9052 5.93282 74.7605 5.61837 74.3145 5.57C74.0011 5.53371 73.6757 5.50953 73.3623 5.54581C72.3377 5.65466 71.735 5.37649 71.8797 4.17918C71.964 3.53819 71.735 3.09072 70.9636 3.1149C70.3006 3.13909 69.6738 3.26003 69.7341 4.05824C69.8546 5.49743 69.035 5.63047 67.9501 5.53371C67.5162 5.49743 67.0702 5.49743 66.6363 5.53371C65.7202 5.61837 65.2862 5.26764 65.3706 4.31221C65.4309 3.57448 65.2139 3.07862 64.3099 3.1149C63.4179 3.13909 63.0924 3.55029 63.1527 4.38478C63.2009 5.06205 63.0683 5.58209 62.2125 5.57C61.7424 5.5579 61.4772 5.79978 61.4652 6.30773C61.4652 6.81568 61.7183 7.06966 62.1884 7.05757C63.1286 7.04547 63.1648 7.65018 63.1527 8.35163C63.1407 9.8392 63.1045 11.3147 63.2009 12.8022C63.2974 14.2898 64.1773 15.1122 65.5514 15.2211C66.8412 15.3178 68.2756 14.314 68.589 13.1288C68.6854 12.7781 68.6854 12.4999 68.3238 12.3185C67.9863 12.1492 67.7091 12.1975 67.4921 12.5241C67.3836 12.6934 67.2872 12.8627 67.1666 13.032C66.9014 13.4069 66.6122 13.7456 66.0818 13.6125C65.5153 13.4674 65.3706 13.0199 65.3706 12.4999C65.3706 11.738 65.3706 10.976 65.3706 10.2141C65.4429 6.61009 64.6956 7.14222 68.5649 7.08175C69.4086 7.06966 69.6859 7.45667 69.6738 8.24278C69.6618 9.76663 69.6376 11.2905 69.7341 12.8022C69.8305 14.3019 70.6984 15.1243 72.0725 15.2211C73.2779 15.3057 74.7364 14.3382 75.086 13.2376C75.2186 12.8748 75.2306 12.5483 74.8329 12.3306Z" fill="#928E9D"/>
<path d="M91.6595 2.51039C92.3707 2.58295 92.4431 3.06671 92.4431 3.62304C92.4431 6.5498 92.431 9.47656 92.4431 12.4033C92.4431 13.0443 92.3104 13.4918 91.5511 13.5402C91.093 13.5764 91.0207 13.9635 91.0448 14.3505C91.0689 14.7858 91.3461 15.0035 91.7439 15.0156C92.9372 15.0277 94.1426 15.0277 95.336 15.0156C95.7579 15.0035 95.9989 14.7496 96.011 14.3263C96.023 13.9393 95.9145 13.5644 95.4685 13.5402C94.7453 13.4918 94.6609 13.0322 94.673 12.4638C94.685 11.6172 94.661 10.7827 94.6971 9.93613C94.7212 9.11374 94.9502 8.33972 95.5891 7.7713C96.1195 7.29963 96.7342 6.98519 97.4574 7.23917C98.2048 7.50523 98.4097 8.14622 98.4217 8.88396C98.4217 10.0813 98.4217 11.2907 98.4338 12.488C98.4338 13.008 98.3735 13.4434 97.7226 13.5402C97.2525 13.6127 97.2163 13.9756 97.2284 14.3626C97.2525 14.8221 97.5418 15.0035 97.9396 15.0156C99.0968 15.0277 100.254 15.0277 101.411 15.0156C101.821 15.0035 102.074 14.7738 102.086 14.3384C102.098 13.9393 102.002 13.5764 101.544 13.5523C100.688 13.516 100.664 12.9476 100.652 12.3066C100.616 10.7827 100.808 9.25887 100.543 7.74711C100.145 5.46134 97.9637 4.61475 96.1074 6.00557C95.6614 6.33211 95.3119 6.77959 94.8538 7.26335C94.7694 7.08194 94.7091 7.02147 94.7091 6.9489C94.6971 5.70321 94.6851 4.46963 94.6851 3.22394C94.6851 0.635813 94.6489 0.611625 92.0694 0.80513C92.0332 0.80513 91.985 0.80513 91.9488 0.80513C91.4546 0.817224 91.081 0.974448 91.0568 1.54287C91.0207 2.00244 91.081 2.44992 91.6595 2.51039Z" fill="#928E9D"/>
<path d="M74.1221 30.8949C72.9529 30.8344 73.1096 29.9878 73.1096 29.238C73.1096 25.9484 73.1096 22.6588 73.0975 19.3693C73.0975 18.8613 73.1819 18.2324 72.4346 18.172C71.6752 18.1115 70.9158 18.1357 70.1564 18.1599C69.7345 18.172 69.5175 18.4501 69.4934 18.8734C69.4693 19.2967 69.5175 19.7805 70.0238 19.8046C71.1086 19.853 71.0484 20.5666 71.0363 21.3164C71.0243 22.0299 71.0363 22.7556 71.0363 23.6868C70.7229 23.5175 70.5783 23.445 70.4577 23.3724C68.1072 21.9574 65.8893 22.683 64.7804 25.2107C64.2621 26.3959 64.1777 27.6295 64.3826 28.8631C64.7563 31.1126 65.8773 32.2494 67.7818 32.5034C69.0595 32.6727 69.9997 32.0559 70.8555 31.1972C71.2774 32.2494 73.1698 32.8179 74.1583 32.2736C74.4475 32.1043 74.5078 31.8624 74.5078 31.5722C74.4958 31.2577 74.4475 30.9191 74.1221 30.8949ZM70.4457 29.9757C69.6019 31.3545 67.9264 31.3424 67.1791 29.9153C66.3835 28.4156 66.3956 26.8313 67.0947 25.2832C67.4202 24.5576 67.9988 24.2069 68.8064 24.2069C69.614 24.2069 70.1805 24.5455 70.5421 25.247C70.9158 25.9726 71.0845 26.7466 71.0484 27.569C71.0845 28.4277 70.9037 29.238 70.4457 29.9757Z" fill="#928E9D"/>
<path d="M41.2505 27.3036C40.2501 27.1101 40.238 28.1986 40.0693 28.8033C39.6715 30.2304 38.8036 30.8472 37.3692 30.7988C37.0076 30.7867 36.646 30.7867 36.2964 30.823C35.3924 30.9197 35.1151 30.4844 35.1272 29.6257C35.1634 26.9771 35.1634 24.3406 35.1272 21.692C35.1151 20.7607 35.3562 20.2286 36.3928 20.3132C36.8629 20.3495 37.2728 20.1802 37.2728 19.5876C37.2848 18.9104 36.8388 18.8136 36.3205 18.8136C34.7174 18.8136 33.1263 18.8136 31.5231 18.8136C31.0169 18.8136 30.5467 18.862 30.5347 19.5513C30.5226 20.2286 30.9686 20.3737 31.487 20.3374C32.4633 20.2649 32.7044 20.7486 32.6923 21.6436C32.6562 24.3285 32.6562 27.0134 32.6923 29.6982C32.7044 30.4965 32.4513 30.9076 31.5954 30.8472C31.0651 30.8109 30.5106 30.8472 30.5347 31.6212C30.5588 32.3952 31.1253 32.371 31.6436 32.371C33.1263 32.3831 34.5968 32.371 36.0795 32.371C36.9232 32.371 37.7549 32.3831 38.5987 32.371C42.3354 32.3226 41.8171 32.9032 41.8291 29.1419C41.8171 28.4888 42.2269 27.485 41.2505 27.3036Z" fill="#928E9D"/>
<path d="M63.623 30.8703C62.6105 30.7856 62.6949 30.0842 62.6828 29.3948C62.6587 27.9556 62.8033 26.5043 62.5623 25.0772C62.2248 23.0696 60.5734 22.1868 58.7412 22.9608C58.018 23.2631 57.5599 23.8799 56.8729 24.4C56.5715 23.8315 56.909 23.0213 56.1014 22.9366C55.3059 22.864 54.5103 22.9124 53.7027 22.9245C53.329 22.9366 53.1241 23.1785 53.1 23.5413C53.0759 23.8799 53.1121 24.279 53.4858 24.3274C54.6911 24.4604 54.4983 25.3433 54.4983 26.1173C54.4983 27.2784 54.4862 28.4394 54.4983 29.6004C54.4983 30.2414 54.4983 30.8219 53.6304 30.8703C53.1723 30.8945 53.088 31.2694 53.1 31.6685C53.1121 32.1039 53.3652 32.3458 53.775 32.3458C54.9684 32.3579 56.1737 32.3579 57.3671 32.3458C57.7889 32.3458 58.03 32.0797 58.0541 31.6564C58.0782 31.3178 58.03 30.9187 57.6564 30.8945C56.6438 30.8098 56.7162 30.1205 56.7282 29.419C56.7403 28.6208 56.7282 27.8105 56.7644 27.0123C56.8005 26.2141 57.0898 25.5247 57.7166 25.0168C58.2711 24.5693 58.8979 24.2911 59.597 24.6298C60.2359 24.9442 60.4769 25.5247 60.4769 26.2262C60.4769 27.4235 60.477 28.6329 60.489 29.8302C60.489 30.3503 60.4408 30.7977 59.7778 30.8582C59.2595 30.8945 59.1269 31.2694 59.1751 31.7169C59.2233 32.1402 59.4885 32.3579 59.8984 32.3699C61.0555 32.382 62.2127 32.3821 63.3699 32.3821C63.7797 32.3821 64.069 32.1765 64.0931 31.7411C64.1293 31.342 64.081 30.9066 63.623 30.8703Z" fill="#928E9D"/>
<path d="M51.6175 30.5198C50.8461 31.0883 50.7255 30.544 50.7135 29.9514C50.6894 28.6695 50.7255 27.3875 50.6894 26.1055C50.6171 23.6383 49.5684 22.6345 47.1214 22.6466C45.2531 22.6587 43.7946 23.4085 43.4089 24.5454C43.204 25.138 43.2883 25.658 43.7584 26.0692C44.2285 26.4925 44.7951 26.4925 45.3134 26.2023C45.8196 25.912 45.9884 25.4404 45.8437 24.8598C45.7714 24.5696 45.5183 24.1826 46.0005 24.0616C46.6634 23.8923 47.3625 23.8076 47.9652 24.2309C48.6402 24.6905 48.5076 25.4283 48.4474 26.1055C48.3871 26.8312 47.7241 26.7586 47.242 26.8553C46.1933 27.0851 45.0964 27.1577 44.1683 27.7624C43.1437 28.4276 42.77 29.383 43.0232 30.5561C43.2642 31.6567 44.1562 32.3219 45.3857 32.3944C46.338 32.4549 47.2299 32.2856 47.9773 31.6688C48.4353 31.2939 48.6764 31.1125 49.1585 31.7414C49.942 32.7573 51.6537 32.5275 52.3287 31.4148C52.4975 31.1487 52.7024 30.8464 52.4492 30.532C52.2082 30.2538 51.9309 30.2901 51.6175 30.5198ZM46.6152 30.8464C45.7594 30.8222 45.2893 30.3626 45.2772 29.5039C45.2652 28.5485 46.3621 27.8712 47.8085 27.8712C48.6764 27.8712 48.4112 28.5122 48.5076 28.8388C48.4474 30.0966 47.6639 30.8827 46.6152 30.8464Z" fill="#928E9D"/>
<path d="M128.99 30.5199C128.267 31.0883 128.074 30.5925 128.05 29.9636C128.014 29.1654 128.038 28.355 128.038 27.5568H128.026C128.026 26.8312 128.05 26.1177 128.026 25.392C127.966 23.9649 127.339 23.2151 125.941 22.8281C124.615 22.4531 123.325 22.5983 122.095 23.1909C121.577 23.4328 121.143 23.7835 120.902 24.3277C120.649 24.9203 120.601 25.5009 121.083 26.0088C121.493 26.4321 122.011 26.4805 122.529 26.2749C123.156 26.033 123.337 25.5009 123.216 24.8962C123.072 24.1826 123.337 23.9649 124.012 23.9407C125.241 23.9044 125.76 24.3035 125.965 25.4041C126.206 26.6861 125.302 26.7586 124.482 26.9038C123.385 27.0852 122.252 27.1698 121.348 27.9439C120.456 28.7058 120.167 29.6733 120.528 30.7618C120.878 31.814 121.722 32.3098 122.819 32.3945C123.819 32.467 124.735 32.2493 125.507 31.5842C125.904 31.2455 126.073 31.1246 126.495 31.6567C127.351 32.7452 129.026 32.5638 129.762 31.4028C129.942 31.1246 130.099 30.8101 129.846 30.5199C129.581 30.2538 129.304 30.278 128.99 30.5199ZM123.976 30.8585C123.072 30.8343 122.71 30.3264 122.722 29.4677C122.734 28.2825 123.614 28.1857 125.266 27.8834C125.856 27.7745 125.989 28.0164 125.977 28.8025C125.953 30.024 125.109 30.8948 123.976 30.8585Z" fill="#928E9D"/>
<path d="M60.9586 10.4442C60.9827 7.42065 59.0902 5.35257 56.2696 5.32838C53.4491 5.30419 51.4119 7.37228 51.3999 10.299C51.3878 13.1653 53.4008 15.2818 56.1371 15.2576C58.8371 15.2334 60.9345 13.1411 60.9586 10.4442ZM54.2446 12.5969C53.5696 10.9763 53.6058 9.31942 54.2928 7.69881C54.6303 6.9127 55.3535 6.64663 56.1611 6.67082C57.029 6.68292 57.704 7.04573 58.0777 7.85603C58.4514 8.66634 58.6081 9.52502 58.5599 10.3837C58.584 11.0731 58.4875 11.7019 58.2947 12.3187C58.0054 13.2016 57.4389 13.7338 56.4866 13.8063C55.4861 13.8668 54.6544 13.5644 54.2446 12.5969Z" fill="#928E9D"/>
<path d="M140.658 27.823C142.008 27.7989 143.37 27.811 144.732 27.811C145.371 27.811 145.793 27.6658 145.805 26.8918C145.865 24.6302 144.045 22.671 141.815 22.6468C138.416 22.6105 136.186 26.1662 137.44 29.6492C138.054 31.3545 139.368 32.2857 141.092 32.5639C142.611 32.8058 143.937 32.2737 144.949 31.1126C145.347 30.6531 146.01 29.9395 145.516 29.4799C144.865 28.8631 144.467 29.7702 144.045 30.2056C142.647 31.669 140.357 31.161 139.694 29.2622C139.32 28.198 139.537 27.8472 140.658 27.823ZM140.465 24.3521C141.128 23.8441 141.888 23.7957 142.587 24.2311C143.226 24.6423 143.672 25.3438 143.442 26.0573C143.141 26.9885 142.189 26.3718 141.646 26.5532C141.514 26.5532 141.466 26.5653 141.429 26.5532C140.815 26.4201 139.923 26.9402 139.646 26.0815C139.441 25.4284 139.899 24.7874 140.465 24.3521Z" fill="#928E9D"/>
<path d="M109.548 26.7345C108.801 26.4684 108.041 26.1902 107.306 25.8758C106.8 25.6702 106.571 25.2711 106.691 24.7148C106.8 24.2189 107.173 24.0133 107.644 23.9528C108.536 23.8319 109.186 24.1826 109.669 24.9325C109.922 25.3316 110.078 25.8274 110.597 25.9846C110.958 26.0935 111.441 26.1298 111.549 25.7549C111.802 24.8236 111.85 23.844 111.513 22.9248C111.38 22.5378 110.753 22.5258 110.573 22.7434C109.982 23.457 109.464 22.9974 108.885 22.7918C107.258 22.2355 105.353 23.0821 104.799 24.5938C104.208 26.1902 104.931 27.448 106.848 28.1616C107.704 28.4881 108.572 28.7905 109.428 29.1291C109.982 29.3468 110.247 29.7701 110.103 30.3748C109.97 30.9674 109.56 31.2577 108.982 31.2818C107.764 31.3544 106.932 30.7255 106.33 29.7459C106.004 29.2258 105.751 28.597 104.992 28.8147C104.184 29.0444 104.498 29.7943 104.425 30.3506C104.413 30.4715 104.425 30.5925 104.425 30.7134C104.437 30.7134 104.449 30.7134 104.461 30.7134C104.461 31.1125 104.413 31.5237 104.473 31.9107C104.594 32.6485 105.341 32.7936 105.594 32.3703C106.161 31.4149 106.619 31.9712 107.186 32.2252C109.006 33.0355 111.175 32.2494 111.862 30.5683C112.574 28.8147 111.79 27.5448 109.548 26.7345Z" fill="#928E9D"/>
<path d="M152.388 26.8307C151.532 26.5042 150.664 26.2018 149.82 25.8511C149.386 25.6697 149.109 25.2947 149.193 24.7989C149.29 24.2547 149.688 24.0249 150.218 23.9644C151.002 23.8797 151.628 24.0853 152.086 24.7626C152.327 25.1254 152.556 25.5124 152.858 25.8269C153.159 26.1413 153.581 26.1655 153.955 25.9115C154.22 25.7301 154.316 23.3476 154.099 22.9848C153.894 22.6461 153.46 22.5494 153.28 22.7308C152.605 23.3839 152.002 22.9727 151.339 22.7792C149.651 22.2954 147.819 23.2025 147.325 24.7142C146.807 26.2986 147.542 27.4838 149.507 28.2215C150.327 28.5359 151.158 28.8141 151.966 29.1528C152.472 29.3704 152.87 29.7333 152.725 30.3622C152.581 30.991 152.11 31.2813 151.496 31.3055C150.266 31.3539 149.495 30.6403 148.88 29.6849C148.579 29.2132 148.338 28.6327 147.626 28.8141C146.843 29.0197 147.18 29.7212 147.096 30.2291C147.072 30.3501 147.096 30.471 147.096 30.5919C147.096 30.8701 147.084 31.1483 147.096 31.4385C147.12 31.8255 146.988 32.2851 147.47 32.4907C147.892 32.6721 148.241 32.5391 148.47 32.1158C148.687 31.7046 148.989 31.9102 149.29 32.019C149.736 32.1884 150.182 32.3819 150.64 32.4786C152.34 32.8293 154.075 31.8255 154.545 30.2654C155.028 28.7174 154.28 27.5442 152.388 26.8307Z" fill="#928E9D"/>
<path d="M87.6824 9.36606C86.923 9.12418 86.1877 8.80973 85.4645 8.4711C85.0908 8.30178 84.8256 7.96315 84.898 7.50357C84.9823 7.00772 85.3198 6.74165 85.7899 6.6449C86.9712 6.41511 87.6824 7.0561 88.2007 7.99943C88.4779 8.49529 88.8998 8.97906 89.4181 8.66461C90.3463 8.09619 89.7677 7.0682 89.8762 6.2458C89.9244 5.85879 89.8882 5.4113 89.3217 5.35083C89.165 5.33874 88.9239 5.32665 88.8637 5.41131C88.3092 6.14904 87.7547 5.67737 87.1641 5.48387C85.4645 4.91545 83.5479 5.78622 83.0176 7.34635C82.4992 8.8702 83.2104 10.0796 85.0788 10.8174C85.9346 11.156 86.8025 11.4341 87.6583 11.797C88.1645 12.0026 88.5623 12.3896 88.4297 13.0064C88.2851 13.6353 87.815 13.9134 87.2002 13.9497C86.477 13.9981 85.8502 13.7683 85.356 13.2603C85.0185 12.9217 84.7292 12.5347 84.452 12.1477C84.1386 11.7123 83.7649 11.4704 83.2345 11.6276C82.7162 11.7849 82.8368 12.2565 82.8006 12.6315C82.7765 12.8733 82.8006 13.1152 82.8006 13.3571C82.8006 13.599 82.7885 13.8409 82.8006 14.0827C82.8368 15.0503 83.4515 15.5945 83.8251 15.0745C84.4881 14.1674 85.0064 14.7116 85.6212 14.9535C87.4895 15.6913 89.5748 14.8205 90.1896 13.0789C90.8043 11.3374 89.9606 10.1159 87.6824 9.36606Z" fill="#928E9D"/>
<path d="M48.7731 14.5668C49.5687 14.0951 50.0629 13.3937 50.3763 12.535C50.4727 12.2689 50.5691 11.9787 50.2437 11.7973C49.9664 11.6521 49.6771 11.7247 49.4722 11.9303C49.2553 12.1601 49.0986 12.4504 48.9057 12.6922C48.3151 13.4542 47.5195 13.7807 46.5914 13.6477C45.615 13.5146 44.8918 13.0188 44.5422 12.0271C44.3252 11.4103 44.2409 10.7814 44.2529 10.1404C44.2288 9.33008 44.3735 8.54397 44.7592 7.81833C45.2172 6.97175 45.9163 6.50008 46.9048 6.57264C47.7365 6.63311 48.4717 6.71778 47.8932 7.92718C47.5557 8.64073 47.7606 9.39056 48.6405 9.65663C49.4481 9.89851 50.0508 9.55987 50.3521 8.76167C50.774 7.62482 50.2316 6.82662 49.3878 6.16145C47.6039 4.77064 44.952 5.0246 43.2766 6.72986C41.6372 8.39884 41.4203 11.6763 42.8426 13.5025C44.2047 15.3046 46.7963 15.752 48.7731 14.5668Z" fill="#928E9D"/>
<path d="M119.396 29.6844C118.794 29.2974 118.565 29.8296 118.299 30.2287C118.034 30.6278 117.757 31.0753 117.166 30.9301C116.527 30.7729 116.455 30.2287 116.455 29.6965C116.443 28.3299 116.467 26.9754 116.431 25.6087C116.407 24.738 116.757 24.4114 117.624 24.3751C118.263 24.351 119.396 24.8226 119.336 23.5528C119.276 22.428 118.227 22.9239 117.612 22.8997C116.817 22.8755 116.311 22.8029 116.407 21.7991C116.467 21.2307 116.66 20.4446 115.575 20.4446C114.635 20.4446 114.129 20.7469 114.237 21.7628C114.31 22.4764 114.081 22.936 113.261 22.8755C112.815 22.8513 112.465 23.0206 112.453 23.5407C112.429 24.0728 112.706 24.3993 113.237 24.3751C114.129 24.351 114.273 24.871 114.261 25.6087C114.237 27.0479 114.213 28.4992 114.273 29.9384C114.334 31.5953 115.31 32.5507 116.708 32.5145C117.914 32.4298 118.842 32.0186 119.408 31.0269C119.637 30.6157 120.023 30.0956 119.396 29.6844Z" fill="#928E9D"/>
<path d="M136.307 29.6846C135.704 29.2855 135.487 29.866 135.198 30.2288C134.885 30.64 134.583 31.1359 133.945 30.9061C133.354 30.6884 133.306 30.1441 133.306 29.5999C133.306 28.2817 133.342 26.9513 133.282 25.6331C133.233 24.6776 133.619 24.3753 134.535 24.3753C135.198 24.3753 136.319 24.7744 136.259 23.5529C136.211 22.4402 135.138 22.9119 134.523 22.9119C133.607 22.9119 133.197 22.6337 133.27 21.6662C133.318 21.0978 133.45 20.4205 132.45 20.4568C131.594 20.481 131.04 20.6987 131.088 21.6783C131.124 22.416 130.943 22.9361 130.051 22.9119C129.557 22.8998 129.352 23.2142 129.364 23.698C129.376 24.1334 129.593 24.4116 130.015 24.3995C131.076 24.3874 131.088 25.0888 131.088 25.8629C131.088 27.3383 131.052 28.8259 131.184 30.3014C131.317 31.7768 132.269 32.5388 133.728 32.5388C134.764 32.4541 135.68 32.0187 136.259 31.0512C136.548 30.6279 136.934 30.1079 136.307 29.6846Z" fill="#928E9D"/>
<path d="M76.7127 13.5403C76.2667 13.5282 76.1221 13.8668 76.1221 14.278C76.1221 14.7134 76.339 14.9915 76.7609 14.9915C78.123 15.0157 79.473 15.0157 80.8351 14.9915C81.257 14.9795 81.474 14.7013 81.474 14.278C81.474 13.9394 81.4016 13.5524 81.0038 13.5644C79.7141 13.6128 79.7743 12.7662 79.7985 11.8834C79.8226 11.1215 79.7985 10.3595 79.7985 9.5976C79.7985 8.9929 79.7985 8.3882 79.7985 7.79559C79.7985 5.28003 79.69 5.18327 77.1587 5.41306C77.1225 5.41306 77.0743 5.41306 77.0381 5.42516C76.5921 5.48563 76.1582 5.54609 76.11 6.1387C76.0618 6.73131 76.3029 7.06994 76.9055 7.08204C77.6047 7.09413 77.7614 7.50533 77.7493 8.11003C77.7373 9.47666 77.7252 10.8433 77.7493 12.1978C77.7855 12.9718 77.7011 13.5645 76.7127 13.5403Z" fill="#928E9D"/>
<path d="M78.6304 3.69417C79.5224 3.71836 80.0287 3.2225 80.0528 2.18242C80.0287 1.3963 79.5947 0.80369 78.6786 0.827878C77.8228 0.852066 77.2804 1.38421 77.2925 2.30335C77.3166 3.16203 77.7987 3.68208 78.6304 3.69417Z" fill="#928E9D"/>
</svg>
