<svg width="112" height="69" viewBox="0 0 112 69" fill="none" xmlns="http://www.w3.org/2000/svg">
<path d="M89.8796 59.1229C89.5252 58.8068 89.5351 58.7969 89.1708 59.113C88.5309 59.6661 87.8418 60.16 87.1428 60.644C86.0009 61.4243 84.8097 62.1355 83.5791 62.7775C82.7915 63.1825 81.9941 63.5677 81.1869 63.9134C80.291 64.2986 79.3755 64.6345 78.4501 64.9308C77.9283 65.0987 77.4164 65.2666 76.8946 65.4148C76.4713 65.5333 76.048 65.6321 75.6247 65.7309C75.2801 65.8099 74.9454 65.9185 74.6009 65.9679C74.1972 66.0371 73.7837 66.1161 73.3801 66.1951C72.8977 66.284 72.4153 66.3531 71.933 66.4322C71.3718 66.5211 70.8008 66.5507 70.2397 66.6198C69.7376 66.6791 69.2257 66.6791 68.7138 66.7087C67.2765 66.768 65.8392 66.7384 64.4019 66.6297C64.3822 66.6297 64.3526 66.6297 64.333 66.6198C63.6438 66.4816 62.9252 66.4816 62.2361 66.363C61.9506 66.3136 61.6553 66.284 61.3698 66.2346C60.7988 66.1358 60.2278 66.047 59.6568 65.8988C59.076 65.7506 58.4853 65.6519 57.9143 65.4938C57.2547 65.3061 56.6148 65.0888 55.9651 64.8814C54.764 64.4863 53.6024 64.0221 52.4506 63.4986C51.7122 63.1627 50.9837 62.7874 50.2749 62.3923C49.6252 62.0367 48.9951 61.6515 48.3651 61.2663C47.5578 60.7526 46.79 60.1995 46.0221 59.6266C45.1262 58.9549 44.2697 58.2339 43.4625 57.4733C42.478 56.5547 41.5329 55.6065 40.6568 54.5792C39.8889 53.6804 39.1702 52.7519 38.491 51.7839C37.8314 50.8456 37.2309 49.8776 36.6796 48.88C36.1283 47.8725 35.6262 46.8551 35.1733 45.7982C34.8386 45.008 34.5335 44.2178 34.2578 43.4079C34.0609 42.8152 33.8542 42.2127 33.7065 41.6003C33.5687 41.0175 33.3915 40.4446 33.293 39.852C33.2044 39.2989 33.0371 38.7556 32.9485 38.2025C32.85 37.5209 32.7319 36.8295 32.6827 36.1479C32.6433 35.6047 32.5547 35.0713 32.5645 34.528C32.5744 34.0045 32.5547 33.4712 32.5547 32.9477C32.5448 31.7525 32.5645 30.5573 32.663 29.372C32.663 29.3325 32.663 29.293 32.6728 29.2535C32.8008 28.8781 32.7614 28.4732 32.8205 28.088C32.8697 27.8015 32.8992 27.5052 32.9583 27.2187C33.0568 26.6458 33.1749 26.073 33.293 25.5001C33.4112 24.9173 33.5588 24.3345 33.7065 23.7518C33.8542 23.1986 34.0412 22.6455 34.2184 22.1022C34.622 20.828 35.134 19.6032 35.6853 18.3883C36.148 17.3808 36.6894 16.4128 37.2604 15.4547C37.9593 14.2694 38.7371 13.1434 39.5837 12.0668C40.263 11.2074 40.962 10.3678 41.7397 9.58751C42.7537 8.56026 43.7676 7.55276 44.8899 6.64404C45.6676 6.01188 46.4749 5.41924 47.3019 4.85622C48.2174 4.22407 49.1723 3.6413 50.1568 3.10791C51.5842 2.3276 53.0511 1.64605 54.5672 1.06328C54.9019 0.934878 54.9019 0.925001 54.7739 0.599046C54.7443 0.520026 54.705 0.441005 54.6853 0.361986C54.6459 0.203947 54.5573 0.19407 54.4195 0.243457C53.6024 0.589168 52.7853 0.915123 51.9879 1.28059C51.2988 1.59667 50.6293 1.95225 49.9697 2.30784C48.9656 2.86098 47.9811 3.45362 47.0361 4.09566C46.9475 4.15492 46.8786 4.1648 46.79 4.11541C46.3863 3.90799 45.9729 3.74007 45.5298 3.60179C44.9392 3.41411 44.3386 3.3351 43.7283 3.27583C43.1967 3.22644 42.6749 3.34497 42.1531 3.43387C41.5526 3.52277 40.9915 3.73019 40.4599 3.99688C39.4459 4.51051 38.5796 5.20193 37.9003 6.14029C37.2013 7.10828 36.8174 8.17504 36.6697 9.3307C36.591 9.9431 36.6304 10.5753 36.7583 11.1778C36.9158 11.889 37.1324 12.5903 37.4967 13.2323C37.6148 13.4298 37.5853 13.5978 37.4671 13.7657C36.6107 15.03 35.8526 16.3536 35.193 17.7364C34.7402 18.6846 34.2676 19.6329 33.9428 20.6404C33.8739 20.8675 33.7262 20.9268 33.5195 20.8675C33.3816 20.8182 33.234 20.8083 33.0962 20.7589C32.5842 20.5811 32.0526 20.5811 31.5309 20.512C31.2749 20.4823 31.0091 20.5515 30.7531 20.5712C30.2314 20.6107 29.7194 20.7095 29.2272 20.8675C28.3215 21.154 27.5044 21.6084 26.7956 22.2405C25.9884 22.9616 25.3583 23.8011 24.9744 24.8185C24.7578 25.3815 24.6101 25.9643 24.5806 26.5668C24.5708 26.8236 24.5904 27.0805 24.5707 27.3373C24.5314 27.9102 24.6396 28.4633 24.7972 29.0066C24.9744 29.619 25.2402 30.2017 25.5946 30.745C26.1754 31.6636 26.9531 32.3846 27.8884 32.918C29.0008 33.5601 30.2117 33.8267 31.4915 33.8366C31.6785 33.8366 31.7573 33.8959 31.7474 34.0934C31.6884 34.7552 31.8656 35.4071 31.8459 36.059C31.8459 36.0887 31.8459 36.1183 31.8557 36.1479C31.9837 36.7307 31.9837 37.3431 32.1117 37.9259C32.1806 38.2518 32.2003 38.5778 32.2889 38.8939C32.3283 39.0322 32.279 39.1309 32.1609 39.21C31.8557 39.4075 31.5801 39.6446 31.334 39.9113C30.9008 40.3755 30.5169 40.8891 30.2117 41.462C29.7391 42.3411 29.493 43.2696 29.434 44.2573C29.4143 44.6228 29.4635 44.9784 29.5029 45.3438C29.562 45.9266 29.7194 46.4797 29.936 47.0131C30.5267 48.4454 31.5112 49.5418 32.8796 50.2826C33.4998 50.6184 34.1495 50.8555 34.8386 51.0036C35.0847 51.053 35.3308 51.053 35.5671 51.1024C36.02 51.2012 36.463 51.211 36.9158 51.1024C37.0241 51.0728 37.093 51.0826 37.1718 51.1913C37.5754 51.7938 37.9889 52.3865 38.4122 52.9791C39.1013 53.9372 39.8495 54.8558 40.6469 55.7151C41.6708 56.8214 42.7241 57.9178 43.9153 58.8562C44.0335 58.9549 44.0728 59.0636 43.9449 59.192C43.8267 59.3105 43.7086 59.4192 43.62 59.5476C43.2361 60.081 43.0982 59.9723 43.7086 60.4267C43.7184 60.4366 43.7283 60.4464 43.7381 60.4563C44.5651 61.1576 45.4314 61.7799 46.3273 62.3923C47.3905 63.1331 48.5029 63.7949 49.6449 64.4073C51.1412 65.2074 52.6967 65.8988 54.2915 66.4914C55.3153 66.8668 56.349 67.2026 57.4024 67.4891C57.934 67.6372 58.4754 67.7557 59.007 67.8842C59.6962 68.0521 60.3951 68.1805 61.0941 68.3089C61.7143 68.4274 62.3345 68.5163 62.9547 68.5756C63.4666 68.625 63.9786 68.7336 64.5003 68.704C64.5889 68.6941 64.6874 68.6744 64.7464 68.783C66.4495 68.783 68.1527 68.783 69.8558 68.783C69.905 68.6842 70.0034 68.704 70.0822 68.704C70.6039 68.7534 71.106 68.625 71.6278 68.5854C71.9133 68.5657 72.2086 68.5361 72.4941 68.4867C72.7894 68.4274 73.0848 68.3583 73.3801 68.3385C73.6459 68.3188 73.9019 68.2595 74.148 68.2002C74.6501 68.0916 75.1521 67.9829 75.6542 67.8743C76.3335 67.7261 77.0128 67.5582 77.6822 67.3606C78.4796 67.1236 79.277 66.8668 80.0646 66.5803C81.2853 66.1358 82.4765 65.6222 83.648 65.0691C84.6423 64.6048 85.6071 64.0616 86.5522 63.4887C87.2117 63.0936 87.8615 62.6787 88.5014 62.254C89.2988 61.7206 90.0568 61.128 90.8247 60.5452C90.9724 60.4366 91.0216 60.318 90.8739 60.1797C90.49 59.8538 90.234 59.4488 89.8796 59.1229ZM38.8749 9.6369C38.9143 9.35045 38.9044 9.05413 38.9734 8.76769C39.1407 8.09602 39.4164 7.48362 39.8298 6.92061C40.2433 6.36747 40.7651 5.97237 41.3754 5.67605C41.7495 5.49825 42.1532 5.3896 42.5765 5.31058C43.0293 5.23156 43.4625 5.25132 43.9153 5.24144C44.2993 5.23156 44.6733 5.34022 45.1065 5.44887C44.8604 5.65629 44.6635 5.84396 44.4371 5.99213C44.1221 6.20943 43.8562 6.47612 43.5708 6.72306C42.6454 7.52313 41.7594 8.36271 40.9423 9.26156C40.3418 9.93322 39.7314 10.595 39.1998 11.3259C39.1604 11.3753 39.121 11.4642 39.0324 11.4247C38.9635 11.3951 38.993 11.3161 38.9734 11.2667C38.8552 10.9111 38.9143 10.5259 38.806 10.1703C38.7568 10.0024 38.8454 9.81469 38.8749 9.6369ZM32.2101 26.715C32.1609 26.8928 32.1314 27.0805 32.1215 27.2582C32.1018 27.5842 32.0428 27.9102 31.9837 28.2164C31.9148 28.5917 31.9739 28.9868 31.836 29.3621C31.8262 29.3918 31.8262 29.4214 31.8262 29.451C31.8262 30.1721 31.6687 30.8833 31.7277 31.6043C31.7474 31.8019 31.6785 31.871 31.4718 31.8809C30.6449 31.9006 29.8671 31.7327 29.1386 31.3574C28.1443 30.8339 27.4355 30.0437 27.0122 29.0066C26.8645 28.651 26.7858 28.2855 26.7169 27.9003C26.6578 27.5645 26.6184 27.2385 26.6479 26.9125C26.7267 25.9248 27.0221 25.0259 27.6226 24.2259C28.1936 23.4653 28.9614 22.9912 29.8376 22.7146C30.3397 22.5566 30.8811 22.4578 31.3832 22.4973C31.9837 22.4874 32.5252 22.5566 33.0568 22.764C33.1355 22.7936 33.1847 22.7936 33.1454 22.9122C32.978 23.4653 32.8205 24.0185 32.6925 24.5716C32.6138 24.9074 32.535 25.2433 32.4563 25.5791C32.3578 25.9544 32.3086 26.3396 32.2101 26.715ZM35.705 49.2059C35.3801 49.1368 35.0454 49.0874 34.7402 48.9886C33.9428 48.7219 33.2635 48.2774 32.7122 47.6354C32.2987 47.1613 32.0428 46.6082 31.836 46.0254C31.5604 45.2549 31.5998 44.4647 31.6687 43.6844C31.7376 42.9535 32.0133 42.272 32.4563 41.6694C32.535 41.5608 32.5645 41.3534 32.7122 41.3632C32.8894 41.383 32.8599 41.6102 32.8894 41.7287C33.0764 42.4893 33.3226 43.2301 33.5785 43.9709C33.7951 44.6129 34.0511 45.2451 34.307 45.8673C34.7205 46.8748 35.2029 47.8527 35.705 48.8108C35.7345 48.8701 35.7739 48.9294 35.8034 48.9886C35.8329 49.038 35.9018 49.0775 35.8625 49.1467C35.8329 49.2257 35.7542 49.1862 35.705 49.2059Z" fill="#928E9D"/>
<path d="M3.17848 22.754C4.73392 22.754 6.28939 22.754 7.84483 22.754C8.06141 22.754 8.15 22.6849 8.14015 22.4577C8.13031 22.0033 8.14015 21.5588 8.14015 21.1045C8.14015 20.7686 8.14015 20.7686 7.79559 20.7686C5.51165 20.7686 3.22771 20.7686 0.943774 20.7686C0.855172 20.7686 0.776406 20.7785 0.687805 20.7785C0.687805 25.0357 0.687805 29.2929 0.687805 33.5501C0.707494 33.5501 0.737035 33.5599 0.756724 33.5599C3.13911 33.5599 5.52151 33.5599 7.90389 33.5698C8.08109 33.5698 8.1303 33.5007 8.1303 33.3327C8.12045 32.8981 8.1303 32.4635 8.1303 32.0289C8.1303 31.6042 8.13032 31.6042 7.71684 31.6042C6.21062 31.6042 4.69455 31.6042 3.18833 31.6042C2.83393 31.6042 2.83391 31.6042 2.83391 31.2684C2.83391 30.1621 2.83391 29.0459 2.83391 27.9397C2.83391 27.6137 2.83392 27.6137 3.14895 27.6137C4.6847 27.6137 6.21062 27.6137 7.74638 27.6137C7.96296 27.6137 8.05155 27.5544 8.0417 27.3273C8.03186 26.8729 8.0417 26.4284 8.0417 25.9741C8.0417 25.6481 8.03185 25.6382 7.69713 25.6382C6.17123 25.6382 4.64532 25.6382 3.11942 25.6382C2.89299 25.6382 2.82407 25.5691 2.83391 25.3419C2.84376 24.5912 2.83391 23.8405 2.83391 23.08C2.84376 22.754 2.84377 22.754 3.17848 22.754Z" fill="#928E9D"/>
<path d="M90.6867 48.8693C90.5784 48.4742 90.4701 48.0889 90.3618 47.6938C90.2437 47.2691 90.1354 46.8444 90.0271 46.4295C89.9287 46.0443 89.8204 45.6591 89.7121 45.2739C89.6038 44.8491 89.4857 44.4244 89.3774 44.0096C89.2691 43.6145 89.1608 43.2292 89.0624 42.8341C88.9541 42.4193 88.8458 42.0044 88.7276 41.5896C88.6194 41.1945 88.5111 40.8093 88.4126 40.4142C88.3044 39.9993 88.196 39.5845 88.0878 39.1696C87.9795 38.7646 87.8712 38.3597 87.7629 37.9448C87.7432 37.846 87.7235 37.7374 87.6349 37.7176C87.5266 37.688 87.5168 37.8263 87.4872 37.8954C87.0344 38.8634 86.5815 39.8413 86.1287 40.8093C85.6266 41.8859 85.1147 42.9527 84.6126 44.0293C84.1696 44.9578 83.7365 45.8863 83.2935 46.8049C83.2639 46.8641 83.2836 46.9629 83.195 46.9629C83.1064 46.9629 83.0966 46.874 83.0769 46.8148C82.7914 46.2221 82.4862 45.6295 82.2204 45.0269C81.8955 44.296 81.5214 43.6046 81.1966 42.8737C80.8717 42.1625 80.5074 41.4711 80.1727 40.7698C79.7002 39.7919 79.2473 38.8042 78.7748 37.8263C78.7453 37.767 78.7354 37.6781 78.637 37.6979C78.5484 37.7176 78.5582 37.7967 78.5484 37.8658C78.4401 38.2708 78.3416 38.6659 78.2334 39.0708C78.1251 39.4659 77.9971 39.8512 77.9085 40.2463C77.7903 40.7796 77.6427 41.3031 77.495 41.8266C77.3178 42.4489 77.1701 43.0712 76.9831 43.6935C76.7862 44.3355 76.6779 44.9973 76.481 45.6295C76.3136 46.1727 76.1857 46.7259 76.038 47.2691C75.8707 47.8716 75.723 48.484 75.5556 49.0964C75.4178 49.6101 75.2603 50.1336 75.1225 50.6472C75.0732 50.8151 75.1126 50.9336 75.3292 50.9238C75.9002 50.9139 76.4712 50.9139 77.052 50.9238C77.1898 50.9238 77.2686 50.8744 77.2981 50.746C77.4064 50.3212 77.5245 49.9064 77.6328 49.4817C77.8002 48.8298 77.9577 48.168 78.1251 47.516C78.3318 46.716 78.5582 45.9357 78.7453 45.1356C78.9028 44.4738 79.0997 43.8219 79.2572 43.1305C79.4147 43.407 79.523 43.6737 79.6509 43.9404C80.1629 45.0368 80.7339 46.1036 81.2359 47.2099C81.5411 47.8815 81.8758 48.5532 82.2105 49.2051C82.496 49.7681 82.7422 50.3509 83.0277 50.9139C83.067 50.9929 83.0966 51.1016 83.2147 51.1016C83.323 51.1016 83.3328 50.983 83.3624 50.9139C83.4904 50.6472 83.6085 50.3805 83.7365 50.1138C84.3665 48.8001 84.9966 47.4864 85.6069 46.1628C85.9318 45.4714 86.2468 44.78 86.5815 44.0985C86.7292 43.8021 86.8375 43.4959 87.0639 43.1799C87.2116 43.7824 87.3494 44.3256 87.4872 44.859C87.6054 45.3035 87.7333 45.748 87.8416 46.1925C87.9499 46.6271 88.0385 47.0617 88.1567 47.4864C88.2945 48.0099 88.452 48.5334 88.58 49.0668C88.7178 49.6199 88.8458 50.1731 88.9738 50.7262C89.0131 50.8744 89.1116 50.9336 89.2691 50.9336C89.7613 50.9238 90.2437 50.9336 90.7359 50.9336C91.1888 50.9336 91.2183 50.9336 91.1199 50.499C90.9821 49.936 90.8344 49.4026 90.6867 48.8693Z" fill="#928E9D"/>
<path d="M17.9652 5.08252C18.0735 5.49737 18.1818 5.91223 18.3 6.32708C18.4378 6.81107 18.5756 7.30494 18.7134 7.78894C18.8316 8.20379 18.93 8.61865 19.0481 9.0335C19.186 9.51749 19.3238 10.0114 19.4616 10.4954C19.6093 11.0287 19.7373 11.5621 19.8849 12.0955C19.9834 12.461 20.1015 12.8264 20.2 13.2018C20.3181 13.6166 20.4165 14.0315 20.5347 14.4463C20.643 14.8414 20.7512 15.2464 20.8595 15.6415C20.958 15.9872 21.0466 16.3428 21.145 16.6885C21.1746 16.7972 21.2533 16.7873 21.3124 16.7083C21.3518 16.6589 21.3813 16.5996 21.401 16.5403C21.6274 15.9181 21.9621 15.3452 22.2378 14.7328C22.7596 13.5672 23.3108 12.4313 23.8523 11.2757C24.4134 10.0805 24.9746 8.87546 25.5456 7.68029C25.5751 7.62102 25.5948 7.50249 25.6735 7.50249C25.7621 7.50249 25.772 7.61114 25.8015 7.68029C26.2347 8.61864 26.6777 9.54712 27.1108 10.4855C27.5637 11.4436 28.0165 12.3918 28.4694 13.3499C28.9715 14.4167 29.4637 15.4835 29.9756 16.5502C30.0051 16.6194 30.0248 16.7478 30.1134 16.7379C30.2217 16.728 30.2316 16.5996 30.2611 16.5008C30.3891 15.9872 30.5269 15.4736 30.6549 14.96C30.8419 14.2192 31.0684 13.4783 31.2652 12.7375C31.4621 11.9869 31.6492 11.2362 31.8461 10.4855C32.0233 9.81381 32.2103 9.14215 32.3974 8.4606C32.5155 8.03587 32.6337 7.60127 32.7518 7.17654C32.8502 6.8012 32.9487 6.43573 33.0373 6.06039C33.1456 5.65541 33.2539 5.24056 33.3621 4.83558C33.4606 4.46024 33.5787 4.0849 33.6772 3.69968C33.7067 3.57127 33.6279 3.51201 33.5098 3.51201C32.9388 3.51201 32.3678 3.51201 31.787 3.51201C31.6492 3.51201 31.5704 3.59103 31.5409 3.71943C31.4917 3.98613 31.4129 4.24294 31.344 4.49975C31.1767 5.15166 31.029 5.7937 30.8616 6.44561C30.6844 7.14691 30.4974 7.85808 30.3103 8.55938C30.202 8.96435 30.1036 9.35945 30.0051 9.76443C29.887 10.2089 29.7787 10.6534 29.6704 11.0979C29.6507 11.1769 29.6507 11.2757 29.572 11.2856C29.4735 11.3053 29.4637 11.1868 29.4342 11.1275C29.1782 10.604 28.9419 10.0805 28.6958 9.557C28.1544 8.41122 27.6031 7.27531 27.0616 6.13941C26.6482 5.26031 26.2347 4.38122 25.8212 3.50213C25.7917 3.43299 25.772 3.34409 25.6735 3.33421C25.5652 3.33421 25.5357 3.43299 25.5062 3.50213C25.388 3.74907 25.2798 3.996 25.1616 4.23306C24.6399 5.33933 24.0787 6.41597 23.5668 7.52225C23.2616 8.19391 22.9171 8.8557 22.602 9.51749C22.3165 10.1003 22.031 10.6929 21.7357 11.3152C21.6274 10.9102 21.529 10.5349 21.4305 10.1694C21.3222 9.73479 21.2238 9.30019 21.1155 8.87546C21.0072 8.44085 20.8891 8.01612 20.7808 7.58151C20.643 7.04813 20.515 6.51475 20.3772 5.97149C20.2689 5.527 20.1507 5.08252 20.0326 4.63804C19.9538 4.33184 19.8751 4.02564 19.7963 3.71943C19.7569 3.55152 19.6585 3.49225 19.4813 3.49225C18.9497 3.50213 18.4181 3.49225 17.8766 3.49225C17.5813 3.49225 17.5419 3.58115 17.6305 3.8676C17.7486 4.3022 17.857 4.6973 17.9652 5.08252Z" fill="#928E9D"/>
<path d="M76.1064 25.5794C75.9587 26.1325 75.8012 26.6758 75.6535 27.219C75.5354 27.6437 75.4173 28.0784 75.2991 28.5031C75.2007 28.8685 75.1022 29.234 75.0136 29.5896C74.8955 30.0143 74.7872 30.4489 74.6691 30.8737C74.5706 31.2589 74.4623 31.6441 74.3639 32.0293C74.2556 32.4442 74.1572 32.859 74.0292 33.2739C73.9603 33.5011 73.9898 33.5603 74.2261 33.5603C74.7577 33.5603 75.2991 33.5603 75.8307 33.5603C76.0375 33.5603 76.1162 33.4616 76.1556 33.2739C76.2245 32.9479 76.3131 32.6318 76.3919 32.3158C76.5002 31.9108 76.6085 31.4959 76.7069 31.091C76.8152 30.6761 76.9038 30.2514 77.0121 29.8365C77.1204 29.4019 77.2385 28.9772 77.3566 28.5426C77.4649 28.1179 77.5732 27.6931 77.6815 27.2684C77.7898 26.8437 77.8981 26.4189 78.0064 25.9942C78.0261 25.9053 78.0064 25.7769 78.1147 25.767C78.1934 25.7572 78.223 25.8856 78.2525 25.9547C78.6266 26.7449 78.981 27.5351 79.3551 28.3253C79.7686 29.2044 80.182 30.0835 80.6053 30.9626C81.0287 31.8614 81.452 32.7603 81.8753 33.6591C81.9048 33.7282 81.9245 33.8171 82.023 33.8073C82.1116 33.7974 82.1411 33.7085 82.1707 33.6393C82.4069 33.0269 82.7318 32.4541 82.9976 31.8614C83.4701 30.8045 83.982 29.7674 84.4644 28.7204C84.8877 27.7919 85.3504 26.8733 85.7934 25.9448C85.823 25.8757 85.8328 25.7473 85.9411 25.767C86.0199 25.7769 85.9706 25.8856 85.9903 25.9547C86.0199 26.0337 86.0494 26.1127 86.0691 26.1918C86.2069 26.7251 86.3349 27.2684 86.4727 27.8018C86.6105 28.3549 86.7681 28.8982 86.9059 29.4414C87.0437 30.0045 87.1618 30.5675 87.3193 31.1206C87.5162 31.812 87.6934 32.5133 87.851 33.2146C87.91 33.4912 87.9691 33.5406 88.2546 33.5406C88.5105 33.5406 88.7665 33.5406 89.0225 33.5406C89.308 33.5406 89.5934 33.5307 89.8789 33.5406C90.0857 33.5504 90.1349 33.4418 90.0857 33.2838C89.9675 32.9183 89.8789 32.5429 89.7805 32.1775C89.6525 31.6836 89.495 31.2095 89.3572 30.7156C89.2095 30.1921 89.0914 29.6587 88.9535 29.1352C88.7567 28.4241 88.5401 27.7228 88.3432 27.0116C88.1364 26.2609 87.9592 25.5102 87.7525 24.7595C87.5851 24.1471 87.3981 23.5347 87.2307 22.9223C87.0043 22.1124 86.7976 21.3024 86.5711 20.5024C86.5515 20.4332 86.5712 20.3246 86.4629 20.3246C86.3644 20.3147 86.3447 20.4233 86.325 20.4826C86.1183 21.0456 85.823 21.5691 85.5769 22.1223C85.1535 23.0705 84.6908 24.0088 84.2675 24.9571C83.923 25.7176 83.5489 26.4782 83.1945 27.2388C82.8499 27.9796 82.5152 28.7204 82.1707 29.4612C82.1411 29.5303 82.1214 29.6489 82.0328 29.6587C81.9344 29.6686 81.9245 29.5501 81.8852 29.4711C81.6883 29.0661 81.4914 28.6512 81.3043 28.2364C80.881 27.2882 80.4282 26.3498 79.9852 25.4016C79.6012 24.5817 79.2173 23.752 78.8235 22.9322C78.4395 22.1124 78.0556 21.2827 77.6618 20.4628C77.6421 20.4135 77.6421 20.3147 77.5535 20.3344C77.4846 20.3542 77.4354 20.4135 77.4354 20.4925C77.4452 20.6505 77.3665 20.7789 77.3271 20.9172C77.2287 21.3222 77.1302 21.7272 77.0219 22.1223C76.8841 22.6161 76.7266 23.11 76.5986 23.6039C76.4313 24.2854 76.2738 24.9274 76.1064 25.5794Z" fill="#928E9D"/>
<path d="M44.8802 25.5688C46.6719 27.406 48.5226 29.1839 50.2848 31.0508C51.1807 31.999 52.1159 32.9077 53.0315 33.8263C53.1102 33.9054 53.189 34.0733 53.3268 34.0041C53.4449 33.9449 53.3859 33.7967 53.3859 33.6782C53.3859 29.5099 53.3859 25.3416 53.3859 21.1635C53.3859 21.1042 53.3859 21.0351 53.3859 20.9758C53.3859 20.8375 53.3268 20.7783 53.189 20.7783C52.5885 20.7783 51.9978 20.7783 51.3973 20.7783C51.2397 20.7783 51.1708 20.8671 51.1511 21.0054C51.1413 21.0845 51.1413 21.1733 51.1413 21.2622C51.1413 23.7118 51.1413 26.1713 51.1413 28.6209C51.1413 28.7197 51.161 28.8185 51.1019 28.9568C50.8066 28.7098 50.59 28.4234 50.3439 28.1666C49.1428 26.9023 47.8827 25.7071 46.7112 24.423C46.1403 23.7909 45.5299 23.1982 44.9195 22.5957C44.1615 21.8351 43.4232 21.0548 42.6848 20.2745C42.6257 20.2152 42.5765 20.1263 42.4781 20.1658C42.3796 20.2054 42.4092 20.314 42.4092 20.393C42.4092 20.4424 42.4092 20.5017 42.4092 20.5609C42.4092 22.2105 42.4092 23.8501 42.4092 25.4997C42.4092 28.0876 42.4092 30.6754 42.4092 33.2535C42.4092 33.5498 42.4289 33.5695 42.7242 33.5695C43.246 33.5695 43.7579 33.5695 44.2796 33.5695C44.6537 33.5695 44.6537 33.5695 44.6537 33.1942C44.6537 30.6952 44.6537 28.1962 44.6537 25.6972C44.6537 25.6083 44.6242 25.4997 44.7029 25.4009C44.762 25.4602 44.8211 25.5095 44.8802 25.5688Z" fill="#928E9D"/>
<path d="M63.1125 20.67C62.5317 20.7984 61.9705 20.9663 61.4389 21.2231C60.4151 21.7269 59.5488 22.4282 58.8892 23.3764C58.0819 24.532 57.6882 25.7964 57.6389 27.199C57.6291 27.4953 57.7177 27.7817 57.7177 28.078C57.7177 28.483 57.8358 28.8781 57.9638 29.2436C58.2001 29.9449 58.5348 30.6067 58.9975 31.1894C59.5094 31.8414 60.1001 32.3945 60.8089 32.8093C61.3897 33.1551 62.0001 33.4217 62.6695 33.5897C63.2011 33.7279 63.7426 33.7971 64.284 33.8267C65.0913 33.8662 65.8789 33.7181 66.6664 33.4909C67.6903 33.1847 68.5762 32.6414 69.354 31.9204C70.0726 31.2586 70.6042 30.4585 70.9488 29.5399C71.1457 29.0065 71.2933 28.4534 71.3229 27.8805C71.3327 27.6632 71.3229 27.4459 71.3229 27.2286C71.3229 26.9421 71.3426 26.6557 71.313 26.3693C71.2933 26.0828 71.2048 25.8161 71.1457 25.5395C70.8996 24.5123 70.3877 23.6332 69.6985 22.8628C68.9503 22.0133 68.025 21.391 66.9617 20.986C66.4695 20.7984 65.9478 20.6403 65.426 20.6206C64.983 20.6008 64.5301 20.5021 64.0773 20.5909C63.7623 20.6403 63.4374 20.6008 63.1125 20.67ZM64.5301 22.4775C67.2374 22.4874 69.1669 24.4629 69.1669 27.2385C69.1669 29.8461 67.1586 31.8809 64.5006 31.8809C61.8426 31.8809 59.7063 29.8362 59.7949 27.2088C59.7654 24.4432 61.754 22.4677 64.5301 22.4775Z" fill="#928E9D"/>
<path d="M90.4399 6.67344C89.9477 5.82398 89.2979 5.14244 88.4513 4.65844C87.6046 4.17445 86.7088 3.84849 85.7342 3.72009C85.1238 3.64107 84.5135 3.55217 83.9031 3.55217C82.8497 3.55217 81.7964 3.55217 80.743 3.55217C80.3984 3.55217 80.3984 3.55217 80.3984 3.90776C80.3984 5.92275 80.3984 7.92787 80.3984 9.94287C80.3984 11.9776 80.3984 14.0124 80.3984 16.0471C80.3984 16.2348 80.4279 16.3533 80.6642 16.3435C82.3969 16.2743 84.1394 16.4817 85.8622 16.1657C86.2067 16.1064 86.5414 16.0274 86.8663 15.9286C87.4865 15.7409 88.0772 15.4742 88.6186 15.1187C89.3471 14.6347 89.9575 14.0321 90.4005 13.2716C90.8534 12.4912 91.0995 11.6418 91.1881 10.7627C91.2668 9.98238 91.257 9.19219 91.0995 8.42175C90.9518 7.80934 90.7549 7.2167 90.4399 6.67344ZM88.2839 12.6197C87.8508 13.2419 87.2503 13.6765 86.5611 13.9729C86.0787 14.1803 85.5767 14.2791 85.0549 14.368C84.3067 14.4964 83.5585 14.4075 82.8104 14.4569C82.6036 14.4667 82.5445 14.3976 82.5445 14.1902C82.5544 12.7678 82.5445 11.3455 82.5445 9.933C82.5445 8.5304 82.5445 7.1278 82.5445 5.71533C82.5445 5.48815 82.6135 5.41901 82.83 5.42888C83.4502 5.44864 84.0705 5.39925 84.6907 5.44864C85.3896 5.51778 86.0787 5.64619 86.7383 5.94251C87.585 6.31785 88.215 6.9105 88.599 7.75008C88.786 8.16493 88.9041 8.60942 88.9534 9.08354C88.9829 9.39961 89.0518 9.70581 89.0321 10.0219C88.973 10.9306 88.8254 11.8393 88.2839 12.6197Z" fill="#928E9D"/>
<path d="M47.8428 50.9041C48.3251 50.9041 48.7977 50.9041 49.2801 50.9041C49.664 50.9041 49.664 50.9041 49.664 50.5189C49.664 48.9484 49.664 47.3779 49.664 45.8173C49.664 45.5012 49.664 45.5012 49.9889 45.5012C50.2744 45.5012 50.5599 45.5012 50.8454 45.5012C50.9537 45.5012 51.0422 45.5308 51.1013 45.6197C51.6132 46.3704 52.1449 47.1112 52.6666 47.852C53.3459 48.8101 54.0153 49.788 54.6848 50.756C54.7438 50.8449 54.8127 50.9041 54.9309 50.9041C55.62 50.9041 56.3091 50.9041 56.9982 50.9041C57.0573 50.9041 57.1262 50.914 57.1557 50.8449C57.1853 50.7757 57.1361 50.7263 57.0967 50.677C56.4371 49.7682 55.7874 48.8694 55.1278 47.9607C54.5371 47.1408 53.9464 46.3309 53.3459 45.5111C53.2376 45.3728 53.277 45.3333 53.4345 45.3135C54.0449 45.2246 54.5961 44.9777 55.0687 44.5727C55.5904 44.1282 55.9252 43.5652 56.1319 42.9232C56.2599 42.5083 56.3485 42.0638 56.3091 41.6292C56.2796 41.2736 56.2107 40.9082 56.0728 40.5526C55.7972 39.8612 55.3739 39.2981 54.7635 38.8635C53.9759 38.3104 53.0604 38.1622 52.135 38.1326C50.7075 38.0931 49.2702 38.1227 47.8428 38.1129C47.4884 38.1129 47.4884 38.1129 47.4884 38.4586C47.4884 40.4736 47.4884 42.4787 47.4884 44.4937C47.4884 46.5087 47.4884 48.5336 47.4884 50.5485C47.5081 50.9041 47.508 50.9041 47.8428 50.9041ZM49.664 40.2563C49.664 40.0686 49.7132 39.9896 49.9101 39.9994C50.6189 40.0093 51.3376 39.9698 52.0464 40.0192C52.6666 40.0686 53.2868 40.1772 53.7594 40.6514C54.035 40.9279 54.163 41.2835 54.1925 41.6687C54.2221 42.0144 54.1925 42.3602 54.0547 42.6664C53.8676 43.101 53.5132 43.3677 53.0702 43.5158C52.6371 43.664 52.1941 43.7232 51.7314 43.7134C51.1407 43.7035 50.55 43.7035 49.9692 43.7232C49.7428 43.7331 49.6542 43.664 49.664 43.4269C49.6837 42.9034 49.6739 42.37 49.6739 41.8465C49.6739 41.3131 49.6739 40.7798 49.664 40.2563Z" fill="#928E9D"/>
<path d="M54.6561 3.88896C54.6561 5.90396 54.6561 7.90908 54.6561 9.92408C54.6561 11.9391 54.6561 13.9442 54.6561 15.9592C54.6561 16.3345 54.6561 16.3345 55.0204 16.3345C55.4437 16.3345 55.8768 16.3345 56.3002 16.3345C56.881 16.3345 56.8219 16.3938 56.8219 15.811C56.8219 14.2701 56.8219 12.7391 56.8219 11.1983C56.8219 10.9908 56.881 10.9217 57.0877 10.9316C57.3634 10.9513 57.6489 10.9415 57.9245 10.9316C58.0427 10.9316 58.1214 10.981 58.1903 11.0797C58.7121 11.8107 59.2339 12.5515 59.7655 13.2824C60.4644 14.2504 61.1535 15.2184 61.8525 16.1963C61.9116 16.2753 61.9707 16.3345 62.0789 16.3345C62.7878 16.3345 63.4867 16.3345 64.1955 16.3345C64.3333 16.3345 64.3826 16.2555 64.294 16.137C64.2054 16.0086 64.1168 15.89 64.0183 15.7616C63.6049 15.2085 63.1914 14.6652 62.7878 14.1121C62.394 13.5886 62.0199 13.0552 61.6359 12.5218C61.2323 11.9786 60.8287 11.4452 60.425 10.9118C60.3463 10.813 60.366 10.7439 60.4841 10.7439C60.7401 10.734 60.9566 10.6353 61.1929 10.5562C61.8722 10.3488 62.3546 9.88457 62.768 9.33143C63.0535 8.94621 63.2111 8.50173 63.2997 8.03749C63.3587 7.75104 63.4769 7.43496 63.3981 7.14852C63.3194 6.84232 63.3391 6.53612 63.2504 6.23979C62.9945 5.28168 62.453 4.5705 61.5965 4.08651C60.8976 3.69141 60.11 3.57288 59.3323 3.55313C57.8851 3.51362 56.438 3.54325 54.9908 3.53337C54.666 3.54325 54.6561 3.54325 54.6561 3.88896ZM56.8219 5.67678C56.8219 5.47923 56.8908 5.41997 57.0779 5.42984C57.7768 5.43972 58.4857 5.40021 59.1846 5.4496C59.7753 5.49898 60.3758 5.60764 60.8287 6.07188C61.1043 6.35832 61.2323 6.70403 61.252 7.08925C61.2815 7.47447 61.2618 7.84981 61.0748 8.19552C60.809 8.67952 60.366 8.92646 59.8344 9.04498C58.9287 9.23266 58.023 9.11413 57.1074 9.15364C56.8908 9.16351 56.8022 9.09437 56.8121 8.86719C56.8318 8.34369 56.8121 7.8103 56.8121 7.2868C56.8219 6.74354 56.8318 6.21016 56.8219 5.67678Z" fill="#928E9D"/>
<path d="M63.2697 38.1131C62.7677 38.1131 62.2656 38.1131 61.7635 38.1131C61.4485 38.1131 61.4485 38.123 61.4485 38.4391C61.4485 39.8219 61.4485 41.2048 61.4485 42.5876C61.4485 43.5852 61.4485 44.573 61.4485 45.5706C61.4485 46.2719 61.4387 46.9732 61.6159 47.6646C61.7931 48.3363 62.0687 48.9487 62.5019 49.4722C63.4568 50.6377 64.7563 51.0723 66.1936 51.1711C66.5381 51.1909 66.8827 51.1612 67.2273 51.1118C67.7392 51.0328 68.2314 50.9242 68.7138 50.7266C69.7967 50.292 70.535 49.5117 71.0174 48.4746C71.4112 47.635 71.4703 46.7164 71.4801 45.8076C71.4998 43.4173 71.49 41.027 71.49 38.6366C71.49 38.5576 71.49 38.4786 71.49 38.3996C71.4801 38.202 71.4013 38.1032 71.1946 38.1032C70.6728 38.1131 70.1413 38.1032 69.6195 38.1032C69.2651 38.1032 69.2552 38.1032 69.2552 38.4687C69.2552 40.9084 69.2552 43.3482 69.2552 45.778C69.2552 46.3015 69.206 46.8053 69.0682 47.309C68.7335 48.4943 67.9262 49.1561 66.6957 49.1857C66.3511 49.1956 66.0065 49.1857 65.662 49.1166C64.9728 48.9783 64.5003 48.5832 64.1361 48.0202C63.7226 47.3683 63.634 46.6176 63.6241 45.8867C63.5946 43.3976 63.6143 40.9183 63.6143 38.4292C63.6143 38.1131 63.6045 38.1131 63.2697 38.1131Z" fill="#928E9D"/>
<path d="M111.607 32.7503C111.311 32.3058 111.006 31.8712 110.711 31.4366C110.642 31.328 110.583 31.3181 110.465 31.3872C110.012 31.6539 109.5 31.8218 108.988 31.8614C108.289 31.9206 107.58 31.9305 106.881 31.7033C106.005 31.4169 105.257 30.9823 104.647 30.2612C103.908 29.3821 103.642 28.3647 103.554 27.2585C103.534 27.0017 103.623 26.7646 103.633 26.5275C103.662 26.0534 103.8 25.6089 103.987 25.1743C104.292 24.4632 104.745 23.8705 105.365 23.3865C106.084 22.8334 106.901 22.5864 107.767 22.4975C108.23 22.4482 108.703 22.4679 109.175 22.5469C109.608 22.626 110.002 22.7544 110.406 22.9025C110.543 22.9519 110.622 22.9519 110.711 22.8136C110.986 22.3889 111.262 21.9839 111.548 21.5691C111.626 21.4505 111.626 21.3913 111.489 21.3221C111.016 21.0752 110.524 20.9073 110.012 20.7492C109.421 20.5714 108.801 20.5517 108.21 20.5517C107.777 20.5517 107.314 20.5517 106.862 20.6603C106.291 20.7986 105.739 20.9665 105.208 21.2135C104.194 21.6975 103.337 22.379 102.678 23.2877C101.821 24.4533 101.378 25.7571 101.378 27.377C101.329 27.8017 101.447 28.3647 101.595 28.9278C101.782 29.5994 102.067 30.2415 102.471 30.8242C103.042 31.6539 103.741 32.3256 104.607 32.8392C105.178 33.1751 105.779 33.4319 106.428 33.5998C106.96 33.7381 107.502 33.7973 108.043 33.8368C108.624 33.8764 109.205 33.7776 109.785 33.6788C110.396 33.58 110.947 33.3627 111.508 33.1059C111.705 33.0269 111.705 32.8985 111.607 32.7503Z" fill="#928E9D"/>
<path d="M22.1197 33.1159C22.3363 33.0073 22.3559 32.9382 22.2181 32.7406C21.9326 32.3159 21.6274 31.8911 21.3419 31.4565C21.2632 31.3281 21.1943 31.3182 21.0663 31.3874C20.3969 31.743 19.6881 31.901 18.9399 31.8714C18.615 31.8615 18.3 31.8615 17.9751 31.7924C17.6699 31.7232 17.3549 31.664 17.0694 31.5454C16.4 31.259 15.8093 30.854 15.3171 30.3009C14.5787 29.4712 14.2834 28.4834 14.1849 27.4068C14.1357 26.8635 14.244 26.3301 14.3818 25.8066C14.6378 24.8782 15.1202 24.0978 15.8782 23.4854C16.6264 22.8829 17.4829 22.5866 18.4181 22.4878C19.3238 22.3989 20.2098 22.5273 21.0564 22.9126C21.1647 22.9619 21.2533 22.9521 21.3321 22.8335C21.6274 22.4088 21.9424 22.0038 22.2476 21.589C22.3461 21.4507 22.3264 21.3815 22.1787 21.3025C21.8637 21.1445 21.529 21.0161 21.2041 20.9074C20.7611 20.7593 20.3083 20.621 19.8357 20.6012C19.4223 20.5815 18.9989 20.5617 18.5756 20.5716C17.729 20.5815 16.9316 20.7593 16.1637 21.0951C14.9922 21.5989 14.0077 22.3594 13.2891 23.4163C12.5114 24.5621 12.0487 25.8165 12.1176 27.3278C12.0487 27.8513 12.1767 28.4439 12.3342 29.0168C12.5015 29.649 12.7968 30.2416 13.1513 30.7947C13.5943 31.4763 14.1357 32.0591 14.8051 32.5233C15.4253 32.9579 16.0948 33.2937 16.8233 33.511C17.4238 33.6888 18.0342 33.7876 18.6544 33.8271C19.2746 33.8666 19.8948 33.7777 20.515 33.6691C21.0663 33.5703 21.6078 33.3728 22.1197 33.1159Z" fill="#928E9D"/>
<path d="M25.5356 38.1232C23.4781 38.1232 21.4206 38.1232 19.3533 38.1232C18.989 38.1232 18.989 38.1232 18.989 38.5084C18.989 40.5135 18.989 42.5187 18.989 44.5238C18.989 46.5487 18.989 48.5735 18.989 50.6083C18.989 50.9046 19.0087 50.9244 19.304 50.9244C19.8061 50.9244 20.3082 50.9244 20.8103 50.9244C21.145 50.9244 21.145 50.9244 21.145 50.5885C21.145 48.781 21.145 46.9734 21.1352 45.1559C21.1352 44.9189 21.2041 44.8596 21.4403 44.8596C22.7398 44.8695 24.0393 44.8695 25.3388 44.8596C25.6932 44.8596 25.6932 44.8596 25.6932 44.5139C25.6932 44.1188 25.6932 43.7237 25.6932 43.3286C25.6932 42.9829 25.6932 42.973 25.3486 42.973C24.0491 42.973 22.7496 42.9631 21.4502 42.973C21.2237 42.973 21.1351 42.9138 21.145 42.6767C21.1647 41.926 21.1548 41.1655 21.1548 40.4148C21.1548 40.0888 21.1548 40.0888 21.4699 40.0888C22.8383 40.0888 24.2066 40.0888 25.5849 40.0888C25.8605 40.0888 25.8901 40.0592 25.8901 39.7826C25.8901 39.348 25.8901 38.9134 25.8901 38.4788C25.8802 38.1232 25.8704 38.1232 25.5356 38.1232Z" fill="#928E9D"/>
<path d="M46.8883 13.2425C46.4453 13.7463 45.8743 14.0723 45.2639 14.3192C44.8603 14.4871 44.4271 14.5859 43.994 14.6155C43.3541 14.6649 42.7044 14.655 42.0743 14.4377C41.6215 14.2797 41.1883 14.092 40.7945 13.8154C40.4696 13.5883 40.2038 13.3018 39.9282 13.0154C39.8297 12.9166 39.7608 12.8771 39.6624 13.0252C39.5442 13.203 39.3867 13.3611 39.2686 13.5389C39.0619 13.8451 38.8158 14.1216 38.6386 14.4575C38.5893 14.5562 38.5696 14.6451 38.6681 14.7242C38.924 14.9316 39.1701 15.1588 39.4458 15.3464C40.5385 16.107 41.7691 16.4823 43.0784 16.6108C43.7872 16.6799 44.4961 16.5712 45.1852 16.4033C45.8645 16.2354 46.5044 15.9786 47.1246 15.623C48.109 15.0402 48.8867 14.2698 49.4577 13.3018C50.0484 12.2844 50.3831 11.188 50.3241 9.99287C50.3044 9.66691 50.3634 9.34096 50.2847 9.01501C50.2059 8.69893 50.1567 8.37297 50.0582 8.05689C49.7137 6.9605 49.1427 6.01226 48.3059 5.22207C48.1878 5.11342 48.0893 5.06403 47.9417 5.15293C47.4987 5.42949 47.0458 5.69619 46.652 6.0419C46.5044 6.1703 46.4945 6.24932 46.6422 6.38761C47.1344 6.82221 47.5085 7.34572 47.7546 7.95812C47.9909 8.53101 48.0992 9.12366 48.1484 9.72618C48.1878 10.2398 48.0893 10.7337 47.981 11.2374C47.8038 12.0079 47.41 12.6598 46.8883 13.2425Z" fill="#928E9D"/>
<path d="M40.1051 47.2304C39.5539 48.0503 38.8253 48.633 37.8803 48.9392C37.4766 49.0676 37.4668 49.0676 37.6735 49.4232C37.9 49.8282 38.1362 50.2233 38.3823 50.6184C38.4513 50.727 38.5103 50.8554 38.6875 50.7863C39.7015 50.4011 40.5875 49.8381 41.3259 49.0479C41.631 48.7219 41.9067 48.3663 42.1331 47.9811C42.6746 47.0724 43.029 46.0945 43.0782 45.0278C43.0979 44.6524 43.1176 44.2771 43.0782 43.9017C43.0487 43.6943 43.0388 43.4968 42.9995 43.2893C42.8419 42.509 42.5663 41.788 42.143 41.1163C41.5228 40.1187 40.7057 39.3482 39.6917 38.7753C39.1601 38.479 38.6088 38.242 38.0082 38.1037C37.4077 37.9654 36.8072 37.8666 36.187 37.8469C35.9606 37.837 35.744 37.916 35.5274 37.9259C34.9171 37.9456 34.3362 38.1037 33.7652 38.321C33.6865 38.3506 33.6077 38.3901 33.6274 38.479C33.6766 38.8642 33.7062 39.2593 33.7948 39.6446C33.8342 39.8125 33.8342 39.9903 33.9228 40.1582C33.9917 40.2767 34.031 40.2965 34.1492 40.2471C34.8088 39.9804 35.488 39.8026 36.1279 39.8224C36.8367 39.8125 37.4373 39.9211 38.0378 40.1286C39.0419 40.4841 39.7803 41.1657 40.302 42.0744C40.5974 42.5683 40.745 43.1313 40.8435 43.7042C40.9518 44.3561 40.9321 44.9981 40.7844 45.6303C40.6663 46.2032 40.43 46.7366 40.1051 47.2304Z" fill="#928E9D"/>
<path d="M69.1661 16.3435C71.6076 16.3336 74.0392 16.3435 76.4806 16.3336C76.7563 16.3336 76.776 16.3139 76.7858 16.0274C76.7858 15.6422 76.7858 15.2669 76.7858 14.8817C76.7858 14.4866 76.7563 14.447 76.3625 14.447C74.748 14.447 73.1433 14.447 71.5288 14.447C70.9578 14.447 71.0366 14.5162 71.0366 13.9532C71.0366 10.5948 71.0366 7.22664 71.0366 3.86831C71.0366 3.54236 71.0268 3.54236 70.7117 3.54236C70.2097 3.54236 69.7076 3.54236 69.2055 3.54236C68.8708 3.54236 68.8708 3.54236 68.8708 3.87819C68.8708 5.89319 68.8708 7.91806 68.8708 9.93306C68.8708 11.9678 68.8708 14.0026 68.8708 16.0373C68.861 16.2645 68.9299 16.3435 69.1661 16.3435Z" fill="#928E9D"/>
<path d="M96.3963 20.789C95.9139 20.789 95.4413 20.789 94.959 20.789C94.6046 20.789 94.6045 20.789 94.6045 21.1347C94.6045 23.1497 94.6045 25.1745 94.6045 27.1895C94.6045 29.2144 94.6045 31.2393 94.6045 33.2642C94.6045 33.5704 94.6045 33.5704 94.9196 33.5704C95.4216 33.5704 95.9237 33.5704 96.4258 33.5704C96.7507 33.5704 96.7605 33.5605 96.7605 33.2247C96.7605 31.4665 96.7605 29.7182 96.7605 27.96C96.7605 25.6882 96.7605 23.4164 96.7605 21.1347C96.7703 20.7988 96.7605 20.789 96.3963 20.789Z" fill="#928E9D"/>
<path d="M35.2518 29.8365C34.7497 30.5773 34.1098 31.1403 33.2829 31.4959C33.1549 31.5551 33.1057 31.6144 33.1057 31.7527C33.1057 32.0292 33.1057 32.3157 33.1057 32.5923C33.1057 32.8886 33.1057 33.1849 33.1057 33.4812C33.1057 33.6294 33.1549 33.6788 33.3222 33.6294C33.529 33.5602 33.7456 33.4911 33.9523 33.4121C34.671 33.1355 35.3207 32.7503 35.9015 32.2466C36.7679 31.486 37.4373 30.5871 37.8212 29.4907C38.0476 28.8685 38.2052 28.2264 38.2347 27.5646C38.2544 27.13 38.2347 26.7053 38.1756 26.2707C38.0772 25.6385 37.9 25.036 37.6342 24.473C37.0927 23.3272 36.2855 22.3889 35.2518 21.6678C35.1041 21.5592 35.0352 21.6283 34.986 21.7765C34.8088 22.2802 34.6316 22.7741 34.4544 23.2778C34.415 23.3865 34.3854 23.5149 34.4937 23.6038C34.8285 23.8606 35.0549 24.2162 35.2911 24.552C35.5373 24.9076 35.7046 25.3027 35.8326 25.7176C35.9508 26.083 35.9606 26.4584 36.0393 26.8238C36.1378 27.2683 36.0295 27.6931 35.9704 28.1079C35.872 28.7005 35.616 29.2932 35.2518 29.8365Z" fill="#928E9D"/>
</svg>
