<svg width="900" height="352" viewBox="0 0 900 352" fill="none" xmlns="http://www.w3.org/2000/svg">
<g clip-path="url(#clip0_740_26384)">
<path d="M16.2651 152.37H36.6609C45.6971 152.37 52.926 144.765 52.926 135.259C52.926 125.753 45.6971 118.148 36.6609 118.148H16.2651C7.22892 118.148 0 125.753 0 135.259C0 144.765 7.22892 152.37 16.2651 152.37Z" fill="white"/>
<path d="M0.263184 16.5679C0.263184 24.716 5.68487 31.2346 13.172 32.8642C13.172 33.1358 13.9465 33.1358 15.2374 33.4074H48.8002C61.709 33.4074 73.3269 45.6296 79.0067 58.1235L80.0394 60.2963C81.8466 64.9136 83.9121 70.0741 86.2356 75.7778C86.2356 76.0494 86.4938 76.0494 86.4938 76.321C95.0136 97.2346 108.439 101.309 129.867 101.309H168.852H213.516L186.666 36.9383L184.859 32.8642C183.826 30.4198 182.535 27.9753 181.244 25.8025C176.339 17.9259 169.885 11.4074 161.881 6.79012C161.623 6.79012 161.365 6.51852 161.365 6.51852C161.107 6.51852 160.848 6.24691 160.59 6.24691C156.201 3.80247 152.07 2.44444 148.456 1.62963C143.292 0 139.678 0 139.678 0H136.322H50.8656H15.7537H14.9792C6.71757 0.54321 0.263184 7.60494 0.263184 16.5679Z" fill="white"/>
<path d="M287.866 315.877C288.124 315.605 288.124 315.333 288.383 315.062C291.481 309.358 311.877 258.296 311.877 258.296C311.877 258.296 314.458 251.235 310.328 244.173C308.262 240.37 303.099 236.025 296.902 236.296H295.87H156.197H150.259H141.481H138.641H137.866C136.834 236.296 136.317 236.568 135.801 236.568C128.572 237.926 122.892 244.716 122.892 252.864C122.892 261.827 129.863 269.432 138.641 269.432C138.899 269.432 139.157 269.432 139.415 269.432H146.902C159.037 269.432 170.138 281.926 175.302 293.605L185.887 316.963C194.149 337.876 213.77 352.543 236.748 352.543C259.983 352 279.605 337.062 287.866 315.877Z" fill="white"/>
<path d="M292.77 16.5679C292.77 19.0123 292.254 21.4568 291.221 23.358C291.221 23.6296 290.963 23.9012 290.963 24.1728C290.963 24.4444 286.574 34.4938 286.574 34.7654L259.466 101.037H376.419C388.554 71.7037 399.655 44.2716 408.691 22.2716C413.08 11.679 404.819 0 393.975 0H339.242H309.036H277.538C286.058 0.271605 292.77 7.60494 292.77 16.5679Z" fill="white"/>
<path d="M127.796 178.173L135.283 194.197C135.8 195.284 136.574 196.914 137.349 198.543C138.123 200.173 138.898 201.802 139.93 203.16C140.447 204.247 141.221 205.333 141.738 206.148C149.483 216.741 163.683 218.914 177.108 218.914H215.318H326.075H327.366C336.918 196.099 347.245 170.568 357.572 145.58C359.38 141.506 360.671 137.975 360.671 134.988C360.412 122.494 350.86 118.148 344.922 118.148H340.791H253.27C252.753 118.148 252.237 118.42 251.979 118.963L237.521 154C237.004 155.086 235.455 155.086 234.939 154L231.583 147.753C231.066 146.667 230.55 145.852 230.034 144.765C226.936 139.333 223.063 134.716 218.674 130.914C209.896 123.309 198.794 118.42 186.918 117.876C186.144 117.876 185.627 117.876 184.853 117.876H139.414H103.786H85.1972C76.6774 118.148 69.9648 125.481 69.9648 134.444C69.9648 142.593 75.6447 149.383 82.8736 150.741C83.1318 151.012 83.9063 151.012 85.1972 151.012H99.9132C112.822 151.012 121.342 163.234 127.022 175.457L127.796 178.173Z" fill="white"/>
<path d="M830.292 150.469L779.431 29.8765H759.036L820.481 172.197L808.347 199.358C802.925 211.58 798.02 219.728 786.402 219.728C782.013 219.728 777.882 218.913 774.784 217.284L772.719 233.309C777.108 235.481 783.304 236.568 789.242 236.568C809.638 236.568 818.158 222.988 826.678 202.074L899.999 29.8765H879.604L830.292 150.469Z" fill="white"/>
<path d="M642.599 58.9381C652.151 48.6171 663.769 42.9134 680.034 42.9134C705.077 42.9134 720.826 59.4813 720.826 85.5553V95.6047C707.917 92.3455 693.718 90.7158 681.067 90.7158C647.504 90.7158 625.043 108.37 625.043 134.444C625.043 159.703 643.115 176.271 670.224 176.271C691.91 176.271 711.274 164.321 721.084 143.407L721.601 173.555H739.673V83.1109C739.673 49.4319 717.986 26.8887 684.423 26.8887C662.478 26.8887 646.472 33.9504 633.821 46.7158L642.599 58.9381ZM675.387 161.876C656.282 161.876 644.664 151.012 644.664 134.173C644.664 116.79 660.155 105.111 683.391 105.111C695.267 105.111 708.692 106.741 720.826 109.728C721.084 143.136 697.074 161.876 675.387 161.876Z" fill="white"/>
<path d="M483.047 142.864C492.341 163.234 510.413 176.543 537.78 176.543C575.99 176.543 603.356 146.666 603.356 101.308C603.356 56.7652 576.248 26.8887 537.78 26.8887C510.671 26.8887 492.341 40.1973 483.047 60.5677L482.53 29.6047H464.458V233.58H483.047V142.864ZM533.391 43.9998C563.597 43.9998 583.993 66.8146 583.993 101.58C583.993 136.345 563.856 159.703 533.391 159.703C503.443 159.703 483.047 136.617 483.047 101.852C483.047 67.0862 503.184 43.9998 533.391 43.9998Z" fill="white"/>
</g>
<defs>
<clipPath id="clip0_740_26384">
<rect width="900" height="352" fill="white"/>
</clipPath>
</defs>
</svg>
