<svg width="100" height="40" viewBox="0 0 100 40" fill="none" xmlns="http://www.w3.org/2000/svg">
<g clip-path="url(#clip0_1644_3663)">
<path d="M1.80723 17.382H4.07344C5.07745 17.382 5.88067 16.5394 5.88067 15.4862C5.88067 14.4329 5.07745 13.5903 4.07344 13.5903H1.80723C0.803213 13.5903 0 14.4329 0 15.4862C0 16.5394 0.803213 17.382 1.80723 17.382Z" fill="url(#paint0_linear_1644_3663)"/>
<path d="M0.0292969 2.33565C0.0292969 3.23843 0.631706 3.96065 1.46361 4.1412C1.46361 4.1713 1.54966 4.1713 1.69309 4.20139H5.4223C6.85661 4.20139 8.14748 5.55556 8.77858 6.93982L8.89332 7.18056C9.09413 7.69213 9.32362 8.26389 9.58179 8.89583C9.58179 8.92593 9.61048 8.92593 9.61048 8.95602C10.5571 11.2731 12.0488 11.7245 14.4298 11.7245H18.7614H23.7241L20.7407 4.59259L20.5399 4.1412C20.4252 3.87037 20.2817 3.59954 20.1383 3.3588C19.5933 2.48611 18.8761 1.76389 17.9868 1.25231C17.9582 1.25231 17.9295 1.22222 17.9295 1.22222C17.9008 1.22222 17.8721 1.19213 17.8434 1.19213C17.3557 0.921296 16.8968 0.770833 16.4952 0.680556C15.9214 0.5 15.5198 0.5 15.5198 0.5H15.1469H5.65179H1.75047H1.66441C0.746451 0.560185 0.0292969 1.34259 0.0292969 2.33565Z" fill="url(#paint1_linear_1644_3663)"/>
<path d="M31.9851 35.4977C32.0138 35.4676 32.0138 35.4375 32.0425 35.4074C32.3867 34.7754 34.6529 29.118 34.6529 29.118C34.6529 29.118 34.9398 28.3356 34.4808 27.5532C34.2513 27.1319 33.6776 26.6504 32.9891 26.6805H32.8744H17.3552H16.6954H15.7201H15.4045H15.3185C15.2037 26.6805 15.1463 26.7106 15.089 26.7106C14.2858 26.8611 13.6547 27.6134 13.6547 28.5162C13.6547 29.5092 14.4292 30.3518 15.4045 30.3518C15.4332 30.3518 15.4619 30.3518 15.4906 30.3518H16.3225C17.6707 30.3518 18.9042 31.7361 19.478 33.0301L20.6541 35.618C21.572 37.9352 23.7522 39.5602 26.3053 39.5602C28.887 39.5 31.0672 37.8449 31.9851 35.4977Z" fill="url(#paint2_linear_1644_3663)"/>
<path d="M32.5301 2.33565C32.5301 2.60648 32.4727 2.87731 32.358 3.08796C32.358 3.11806 32.3293 3.14815 32.3293 3.17824C32.3293 3.20833 31.8416 4.32176 31.8416 4.35185L28.8296 11.6944H41.8244C43.1727 8.44444 44.4062 5.40509 45.4102 2.96759C45.8979 1.79398 44.9799 0.5 43.7751 0.5H37.6936H34.3373H30.8376C31.7843 0.530093 32.5301 1.34259 32.5301 2.33565Z" fill="url(#paint3_linear_1644_3663)"/>
<path d="M14.1996 20.2409L15.0315 22.0163C15.0889 22.1367 15.175 22.3172 15.261 22.4978C15.3471 22.6784 15.4331 22.8589 15.5479 23.0094C15.6053 23.1297 15.6913 23.2501 15.7487 23.3404C16.6093 24.514 18.187 24.7547 19.6787 24.7547H23.9242H36.2306H36.374C37.4354 22.227 38.5829 19.3983 39.7303 16.6297C39.9311 16.1784 40.0746 15.7872 40.0746 15.4561C40.0459 14.0719 38.9845 13.5904 38.3247 13.5904H37.8657H28.1411C28.0837 13.5904 28.0264 13.6205 27.9977 13.6807L26.3913 17.5626C26.3339 17.683 26.1618 17.683 26.1044 17.5626L25.7315 16.8705C25.6741 16.7501 25.6167 16.6598 25.5594 16.5395C25.2151 15.9376 24.7848 15.426 24.2972 15.0047C23.3218 14.1622 22.0883 13.6205 20.7688 13.5603C20.6827 13.5603 20.6253 13.5603 20.5393 13.5603H15.4905H11.5318H9.46641C8.51977 13.5904 7.77393 14.4029 7.77393 15.396C7.77393 16.2987 8.40502 17.051 9.20823 17.2015C9.23692 17.2316 9.32298 17.2316 9.46641 17.2316H11.1015C12.5358 17.2316 13.4825 18.5858 14.1136 19.9399L14.1996 20.2409Z" fill="url(#paint4_linear_1644_3663)"/>
<path d="M92.2547 17.1714L86.6035 3.8103H84.3373L91.1646 19.5788L89.8163 22.5881C89.2139 23.9422 88.6689 24.845 87.378 24.845C86.8903 24.845 86.4314 24.7547 86.0871 24.5742L85.8576 26.3497C86.3453 26.5904 87.0338 26.7108 87.6936 26.7108C89.9598 26.7108 90.9064 25.2061 91.8531 22.889L99.9999 3.8103H97.7337L92.2547 17.1714Z" fill="url(#paint5_linear_1644_3663)"/>
<path d="M71.3999 7.03017C72.4613 5.88666 73.7521 5.25471 75.5594 5.25471C78.3419 5.25471 80.0918 7.09036 80.0918 9.97925V11.0927C78.6575 10.7316 77.0797 10.551 75.6741 10.551C71.9449 10.551 69.4492 12.507 69.4492 15.3959C69.4492 18.1945 71.4573 20.0302 74.4693 20.0302C76.8789 20.0302 79.0304 18.7061 80.1205 16.389L80.1778 19.7292H82.1859V9.70841C82.1859 5.97693 79.7762 3.47925 76.047 3.47925C73.6087 3.47925 71.8302 4.26166 70.4245 5.67601L71.3999 7.03017ZM75.043 18.4353C72.9202 18.4353 71.6294 17.2316 71.6294 15.3658C71.6294 13.4399 73.3505 12.1459 75.9323 12.1459C77.2519 12.1459 78.7435 12.3265 80.0918 12.6575C80.1205 16.3589 77.4527 18.4353 75.043 18.4353Z" fill="url(#paint6_linear_1644_3663)"/>
<path d="M53.6719 16.3288C54.7046 18.5857 56.7126 20.0603 59.7533 20.0603C63.9989 20.0603 67.0396 16.7501 67.0396 11.7246C67.0396 6.78943 64.0276 3.47925 59.7533 3.47925C56.7413 3.47925 54.7046 4.95378 53.6719 7.21073L53.6145 3.78017H51.6064V26.3797H53.6719V16.3288ZM59.2657 5.37508C62.6219 5.37508 64.8881 7.90286 64.8881 11.7547C64.8881 15.6066 62.6506 18.1945 59.2657 18.1945C55.9381 18.1945 53.6719 15.6367 53.6719 11.7848C53.6719 7.93295 55.9094 5.37508 59.2657 5.37508Z" fill="url(#paint7_linear_1644_3663)"/>
</g>
<defs>
<linearGradient id="paint0_linear_1644_3663" x1="0.00159871" y1="15.4843" x2="45.5344" y2="15.4843" gradientUnits="userSpaceOnUse">
<stop stop-color="#AB3882"/>
<stop offset="0.5682" stop-color="#FF1C26"/>
<stop offset="1" stop-color="#F7941F"/>
</linearGradient>
<linearGradient id="paint1_linear_1644_3663" x1="0.0204225" y1="6.09363" x2="45.5532" y2="6.09363" gradientUnits="userSpaceOnUse">
<stop stop-color="#AB3882"/>
<stop offset="0.5682" stop-color="#FF1C26"/>
<stop offset="1" stop-color="#F7941F"/>
</linearGradient>
<linearGradient id="paint2_linear_1644_3663" x1="0.00164289" y1="33.0905" x2="45.5344" y2="33.0905" gradientUnits="userSpaceOnUse">
<stop stop-color="#AB3882"/>
<stop offset="0.5682" stop-color="#FF1C26"/>
<stop offset="1" stop-color="#F7941F"/>
</linearGradient>
<linearGradient id="paint3_linear_1644_3663" x1="0.00158957" y1="6.09363" x2="45.5344" y2="6.09363" gradientUnits="userSpaceOnUse">
<stop stop-color="#AB3882"/>
<stop offset="0.5682" stop-color="#FF1C26"/>
<stop offset="1" stop-color="#F7941F"/>
</linearGradient>
<linearGradient id="paint4_linear_1644_3663" x1="0.00157252" y1="19.1766" x2="45.5344" y2="19.1766" gradientUnits="userSpaceOnUse">
<stop stop-color="#AB3882"/>
<stop offset="0.5682" stop-color="#FF1C26"/>
<stop offset="1" stop-color="#F7941F"/>
</linearGradient>
<linearGradient id="paint5_linear_1644_3663" x1="51.5971" y1="15.241" x2="99.9945" y2="15.241" gradientUnits="userSpaceOnUse">
<stop stop-color="#AB3881"/>
<stop offset="0.5682" stop-color="#ED2B30"/>
<stop offset="1" stop-color="#F79420"/>
</linearGradient>
<linearGradient id="paint6_linear_1644_3663" x1="51.5971" y1="11.7683" x2="99.9946" y2="11.7683" gradientUnits="userSpaceOnUse">
<stop stop-color="#AB3881"/>
<stop offset="0.5682" stop-color="#ED2B30"/>
<stop offset="1" stop-color="#F79420"/>
</linearGradient>
<linearGradient id="paint7_linear_1644_3663" x1="51.5972" y1="14.9364" x2="99.9946" y2="14.9364" gradientUnits="userSpaceOnUse">
<stop stop-color="#AB3881"/>
<stop offset="0.5682" stop-color="#ED2B30"/>
<stop offset="1" stop-color="#F79420"/>
</linearGradient>
<clipPath id="clip0_1644_3663">
<rect width="100" height="39" fill="white" transform="translate(0 0.5)"/>
</clipPath>
</defs>
</svg>
