<svg xmlns="http://www.w3.org/2000/svg" xmlns:xlink="http://www.w3.org/1999/xlink" width="213.726" height="50.759" viewBox="0 0 213.726 50.759">
  <defs>
    <clipPath>
      <rect data-name="Rectangle 2" width="213.726" height="50.759" fill="none"></rect>
    </clipPath>
  </defs>
  <g data-name="Group 1" clip-path="url(#clip-path)">
    <path data-name="Subtraction 2" d="M13.215,12.872H0V12.86A20.612,20.612,0,0,1,1.9,6.44,12.414,12.414,0,0,1,5.426,2.019,10.116,10.116,0,0,1,11.693.009h1.141V0H28.819a10.117,10.117,0,0,1,6.266,2.009A12.41,12.41,0,0,1,38.61,6.43a20.392,20.392,0,0,1,1.9,6.43H28.726a9.893,9.893,0,0,0-15.51.012Z" transform="translate(0 0)" fill="#0066a7" stroke="rgba(0,0,0,0)" stroke-miterlimit="10" stroke-width="1"></path>
    <path data-name="Subtraction 3" d="M40.773,12.567H28.493a9.909,9.909,0,0,0,2.044-8.974L40.77,12.565ZM11.607,9.329l0,0L0,0H13.215a9.911,9.911,0,0,0-1.61,9.325Z" transform="translate(0.001 12.871)" fill="#001c36" stroke="rgba(0,0,0,0)" stroke-miterlimit="10" stroke-width="1"></path>
    <path data-name="Subtraction 1" d="M28.818,12.871H12.833V12.86H11.692a10.117,10.117,0,0,1-6.266-2.009A12.413,12.413,0,0,1,1.9,6.43,20.359,20.359,0,0,1,0,0H13.447a9.885,9.885,0,0,0,7.528,3.474A9.886,9.886,0,0,0,28.494.01H40.509V.021a20.608,20.608,0,0,1-1.9,6.42,12.412,12.412,0,0,1-3.526,4.421A10.116,10.116,0,0,1,28.818,12.871Z" transform="translate(0 25.429)" fill="#0066a7" stroke="rgba(0,0,0,0)" stroke-miterlimit="10" stroke-width="1"></path>
    <path data-name="Path 7" d="M94.159,31.6h1.425l3.491,6.584,3.337-6.584h1.3L99.58,39.5h-1.1Z" transform="translate(33.53 11.252)" fill="#6c686a"></path>
    <path data-name="Path 8" d="M109.247,31.6h1.409l4.394,7.9H113.6l-1.012-1.945H107.24L106.23,39.5h-1.3Zm2.8,4.946L109.92,32.5l-2.129,4.043Z" transform="translate(37.365 11.252)" fill="#6c686a"></path>
    <path data-name="Path 9" d="M118.2,31.6h1.317v6.8H125.5v1.1h-7.3Z" transform="translate(42.091 11.252)" fill="#6c686a"></path>
    <path data-name="Path 10" d="M126.988,31.6h1.424l3.491,6.584,3.339-6.584h1.3l-4.135,7.9h-1.1Z" transform="translate(45.221 11.252)" fill="#6c686a"></path>
    <path data-name="Path 11" d="M139.84,31.6h7.61v1.056h-6.294v2.205H145V35.9h-3.845v2.51h6.355V39.5H139.84Z" transform="translate(49.797 11.252)" fill="#6c686a"></path>
    <path data-name="Path 12" d="M152.969,32.671v2.205h4.977c1.437,0,1.836.445,1.836,1.869v.888c0,1.454-.414,1.867-1.836,1.867h-4.609c-1.424,0-1.854-.414-1.854-1.867v-.216l1.226-.29V38.4h5.88V36.025h-4.962c-1.409,0-1.838-.4-1.838-1.869v-.689c0-1.47.428-1.867,1.838-1.867h4.211c1.318,0,1.854.366,1.854,1.73V33.5l-1.134.321V32.671Z" transform="translate(53.944 11.252)" fill="#6c686a"></path>
    <path data-name="Path 13" d="M45.082,35.827c-5.087,0-8.95-1.084-12.244-4.429l4.238-4.236c2.12,2.12,4.993,2.825,8.1,2.825,3.864,0,5.936-1.461,5.936-4.144a3.735,3.735,0,0,0-1.035-2.825,4.963,4.963,0,0,0-2.967-1.177l-4.055-.565a11.393,11.393,0,0,1-6.5-2.779,8.877,8.877,0,0,1-2.4-6.595c0-5.984,4.429-10.173,11.681-10.173,4.615,0,7.956,1.13,10.831,3.91l-4.144,4.1a9.334,9.334,0,0,0-6.877-2.309c-3.485,0-5.182,1.93-5.182,4.241a3.236,3.236,0,0,0,.991,2.4,5.772,5.772,0,0,0,3.105,1.318l3.96.565c3.061.422,4.993,1.271,6.4,2.589,1.79,1.7,2.592,4.146,2.592,7.114,0,6.5-5.414,10.172-12.433,10.172" transform="translate(11.694 0.615)" fill="#001c36"></path>
    <path data-name="Path 14" d="M67.583,35.47V20.493c0-3.249-2.073-4.333-4-4.333s-3.956,1.13-3.956,4.333V35.47H53.5V1.936h6.123V13.193a8.1,8.1,0,0,1,5.884-2.544c5.372,0,8.2,3.769,8.2,8.949V35.47Z" transform="translate(19.053 0.689)" fill="#001c36"></path>
    <rect data-name="Rectangle 1" width="6.127" height="24.539" transform="translate(97.107 11.79)" fill="#001c36"></rect>
    <path data-name="Path 15" d="M97.381,31.251A8.544,8.544,0,0,1,91.4,33.465a7.264,7.264,0,0,1-5.934-2.448V47.782H79.343V8.644h5.932v2.307A7.473,7.473,0,0,1,91.4,8.361a8.538,8.538,0,0,1,5.982,2.215c2.446,2.449,2.5,6.641,2.5,10.315s-.05,7.912-2.5,10.361M89.611,13.872c-3.674,0-4.147,3.013-4.147,7.018s.473,7.064,4.147,7.064,4.146-3.061,4.146-7.064-.472-7.018-4.146-7.018" transform="translate(28.254 2.977)" fill="#001c36"></path>
    <path data-name="Path 16" d="M111.141,35.47V20.493c0-3.249-2.073-4.333-4-4.333s-3.957,1.13-3.957,4.333V35.47H97.055V1.936h6.124V13.193a8.1,8.1,0,0,1,5.888-2.544c5.372,0,8.195,3.769,8.195,8.949V35.47Z" transform="translate(34.562 0.689)" fill="#001c36"></path>
    <path data-name="Path 17" d="M128.117,33.447v-2.12a7.462,7.462,0,0,1-6.033,2.354c-2.775,0-4.8-.707-6.258-2.167A7.867,7.867,0,0,1,113.8,26c0-3.908,2.684-7.111,8.386-7.111h5.792V17.667c0-2.682-1.319-3.862-4.569-3.862A5.27,5.27,0,0,0,118.7,15.83l-3.911-3.815c2.4-2.636,4.76-3.392,8.855-3.392,6.878,0,10.458,2.92,10.458,8.667V33.447Zm-.141-10.363h-4.851c-2.215,0-3.439,1.036-3.439,2.78,0,1.694,1.132,2.825,3.53,2.825,1.7,0,2.779-.141,3.862-1.177.662-.613.9-1.6.9-3.107Z" transform="translate(40.524 3.07)" fill="#001c36"></path>
    <path data-name="Path 18" d="M160.435,33.182V18.346c0-3.344-2.118-4.474-4.049-4.474a3.953,3.953,0,0,0-4.1,4.333V33.182h-6.121V18.346c0-3.344-2.121-4.474-4.053-4.474s-4.1,1.13-4.1,4.474V33.182h-6.127V8.644h5.982v2.261A8.6,8.6,0,0,1,144,8.361a7.611,7.611,0,0,1,6.5,3.108,9.356,9.356,0,0,1,7.345-3.108,8.561,8.561,0,0,1,6.031,2.167,9.257,9.257,0,0,1,2.684,6.969V33.182Z" transform="translate(46.967 2.977)" fill="#001c36"></path>
    <path data-name="Path 19" d="M77.829,4.6a3.179,3.179,0,1,1-3.177-3.18A3.179,3.179,0,0,1,77.829,4.6" transform="translate(25.451 0.507)" fill="#001c36"></path>
  </g>
</svg>